G04 #@! TF.GenerationSoftware,KiCad,Pcbnew,8.0.0*
G04 #@! TF.CreationDate,2024-02-27T22:34:17+01:00*
G04 #@! TF.ProjectId,ESPilot,45535069-6c6f-4742-9e6b-696361645f70,rev?*
G04 #@! TF.SameCoordinates,PX6f32cc0PY1b2e020*
G04 #@! TF.FileFunction,Legend,Top*
G04 #@! TF.FilePolarity,Positive*
%FSLAX46Y46*%
G04 Gerber Fmt 4.6, Leading zero omitted, Abs format (unit mm)*
G04 Created by KiCad (PCBNEW 8.0.0) date 2024-02-27 22:34:17*
%MOMM*%
%LPD*%
G01*
G04 APERTURE LIST*
G04 Aperture macros list*
%AMFreePoly0*
4,1,6,1.000000,0.000000,0.500000,-0.750000,-0.500000,-0.750000,-0.500000,0.750000,0.500000,0.750000,1.000000,0.000000,1.000000,0.000000,$1*%
G04 Aperture macros list end*
%ADD10C,0.100000*%
%ADD11C,0.150000*%
%ADD12C,0.300000*%
%ADD13C,0.400000*%
%ADD14C,0.120000*%
%ADD15C,1.600000*%
%ADD16O,1.600000X1.600000*%
%ADD17R,1.600000X1.600000*%
%ADD18C,1.800000*%
%ADD19C,2.000000*%
%ADD20R,1.500000X1.500000*%
%ADD21FreePoly0,90.000000*%
%ADD22FreePoly0,270.000000*%
%ADD23R,3.000000X3.000000*%
%ADD24C,3.000000*%
%ADD25R,2.300000X2.000000*%
%ADD26C,2.300000*%
G04 APERTURE END LIST*
D10*
D11*
X60402200Y-137507200D02*
X168402200Y-137507200D01*
X168402200Y-169507200D01*
X60402200Y-169507200D01*
X60402200Y-137507200D01*
D10*
D11*
X-106600000Y18500000D02*
X170402200Y18500000D01*
X170402200Y-171507200D01*
X-106600000Y-171507200D01*
X-106600000Y18500000D01*
D10*
D11*
X-104600000Y16500000D02*
X168402200Y16500000D01*
X168402200Y-169507200D01*
X-104600000Y-169507200D01*
X-104600000Y16500000D01*
D10*
D11*
X-56600000Y16500000D02*
X-56600000Y18500000D01*
D10*
D11*
X-6600000Y16500000D02*
X-6600000Y18500000D01*
D10*
D11*
X43400000Y16500000D02*
X43400000Y18500000D01*
D10*
D11*
X93400000Y16500000D02*
X93400000Y18500000D01*
D10*
D11*
X143400000Y16500000D02*
X143400000Y18500000D01*
D10*
D11*
X-80510840Y16906396D02*
X-81253697Y16906396D01*
X-80882269Y16906396D02*
X-80882269Y18206396D01*
X-80882269Y18206396D02*
X-81006078Y18020681D01*
X-81006078Y18020681D02*
X-81129888Y17896872D01*
X-81129888Y17896872D02*
X-81253697Y17834967D01*
D10*
D11*
X-31253697Y18082586D02*
X-31191793Y18144491D01*
X-31191793Y18144491D02*
X-31067983Y18206396D01*
X-31067983Y18206396D02*
X-30758459Y18206396D01*
X-30758459Y18206396D02*
X-30634650Y18144491D01*
X-30634650Y18144491D02*
X-30572745Y18082586D01*
X-30572745Y18082586D02*
X-30510840Y17958777D01*
X-30510840Y17958777D02*
X-30510840Y17834967D01*
X-30510840Y17834967D02*
X-30572745Y17649253D01*
X-30572745Y17649253D02*
X-31315602Y16906396D01*
X-31315602Y16906396D02*
X-30510840Y16906396D01*
D10*
D11*
X18684398Y18206396D02*
X19489160Y18206396D01*
X19489160Y18206396D02*
X19055826Y17711158D01*
X19055826Y17711158D02*
X19241541Y17711158D01*
X19241541Y17711158D02*
X19365350Y17649253D01*
X19365350Y17649253D02*
X19427255Y17587348D01*
X19427255Y17587348D02*
X19489160Y17463539D01*
X19489160Y17463539D02*
X19489160Y17154015D01*
X19489160Y17154015D02*
X19427255Y17030205D01*
X19427255Y17030205D02*
X19365350Y16968300D01*
X19365350Y16968300D02*
X19241541Y16906396D01*
X19241541Y16906396D02*
X18870112Y16906396D01*
X18870112Y16906396D02*
X18746303Y16968300D01*
X18746303Y16968300D02*
X18684398Y17030205D01*
D10*
D11*
X69365350Y17773062D02*
X69365350Y16906396D01*
X69055826Y18268300D02*
X68746303Y17339729D01*
X68746303Y17339729D02*
X69551064Y17339729D01*
D10*
D11*
X119427255Y18206396D02*
X118808207Y18206396D01*
X118808207Y18206396D02*
X118746303Y17587348D01*
X118746303Y17587348D02*
X118808207Y17649253D01*
X118808207Y17649253D02*
X118932017Y17711158D01*
X118932017Y17711158D02*
X119241541Y17711158D01*
X119241541Y17711158D02*
X119365350Y17649253D01*
X119365350Y17649253D02*
X119427255Y17587348D01*
X119427255Y17587348D02*
X119489160Y17463539D01*
X119489160Y17463539D02*
X119489160Y17154015D01*
X119489160Y17154015D02*
X119427255Y17030205D01*
X119427255Y17030205D02*
X119365350Y16968300D01*
X119365350Y16968300D02*
X119241541Y16906396D01*
X119241541Y16906396D02*
X118932017Y16906396D01*
X118932017Y16906396D02*
X118808207Y16968300D01*
X118808207Y16968300D02*
X118746303Y17030205D01*
D10*
D11*
X169365350Y18206396D02*
X169117731Y18206396D01*
X169117731Y18206396D02*
X168993922Y18144491D01*
X168993922Y18144491D02*
X168932017Y18082586D01*
X168932017Y18082586D02*
X168808207Y17896872D01*
X168808207Y17896872D02*
X168746303Y17649253D01*
X168746303Y17649253D02*
X168746303Y17154015D01*
X168746303Y17154015D02*
X168808207Y17030205D01*
X168808207Y17030205D02*
X168870112Y16968300D01*
X168870112Y16968300D02*
X168993922Y16906396D01*
X168993922Y16906396D02*
X169241541Y16906396D01*
X169241541Y16906396D02*
X169365350Y16968300D01*
X169365350Y16968300D02*
X169427255Y17030205D01*
X169427255Y17030205D02*
X169489160Y17154015D01*
X169489160Y17154015D02*
X169489160Y17463539D01*
X169489160Y17463539D02*
X169427255Y17587348D01*
X169427255Y17587348D02*
X169365350Y17649253D01*
X169365350Y17649253D02*
X169241541Y17711158D01*
X169241541Y17711158D02*
X168993922Y17711158D01*
X168993922Y17711158D02*
X168870112Y17649253D01*
X168870112Y17649253D02*
X168808207Y17587348D01*
X168808207Y17587348D02*
X168746303Y17463539D01*
D10*
D11*
X-56600000Y-169507200D02*
X-56600000Y-171507200D01*
D10*
D11*
X-6600000Y-169507200D02*
X-6600000Y-171507200D01*
D10*
D11*
X43400000Y-169507200D02*
X43400000Y-171507200D01*
D10*
D11*
X93400000Y-169507200D02*
X93400000Y-171507200D01*
D10*
D11*
X143400000Y-169507200D02*
X143400000Y-171507200D01*
D10*
D11*
X-80510840Y-171100804D02*
X-81253697Y-171100804D01*
X-80882269Y-171100804D02*
X-80882269Y-169800804D01*
X-80882269Y-169800804D02*
X-81006078Y-169986519D01*
X-81006078Y-169986519D02*
X-81129888Y-170110328D01*
X-81129888Y-170110328D02*
X-81253697Y-170172233D01*
D10*
D11*
X-31253697Y-169924614D02*
X-31191793Y-169862709D01*
X-31191793Y-169862709D02*
X-31067983Y-169800804D01*
X-31067983Y-169800804D02*
X-30758459Y-169800804D01*
X-30758459Y-169800804D02*
X-30634650Y-169862709D01*
X-30634650Y-169862709D02*
X-30572745Y-169924614D01*
X-30572745Y-169924614D02*
X-30510840Y-170048423D01*
X-30510840Y-170048423D02*
X-30510840Y-170172233D01*
X-30510840Y-170172233D02*
X-30572745Y-170357947D01*
X-30572745Y-170357947D02*
X-31315602Y-171100804D01*
X-31315602Y-171100804D02*
X-30510840Y-171100804D01*
D10*
D11*
X18684398Y-169800804D02*
X19489160Y-169800804D01*
X19489160Y-169800804D02*
X19055826Y-170296042D01*
X19055826Y-170296042D02*
X19241541Y-170296042D01*
X19241541Y-170296042D02*
X19365350Y-170357947D01*
X19365350Y-170357947D02*
X19427255Y-170419852D01*
X19427255Y-170419852D02*
X19489160Y-170543661D01*
X19489160Y-170543661D02*
X19489160Y-170853185D01*
X19489160Y-170853185D02*
X19427255Y-170976995D01*
X19427255Y-170976995D02*
X19365350Y-171038900D01*
X19365350Y-171038900D02*
X19241541Y-171100804D01*
X19241541Y-171100804D02*
X18870112Y-171100804D01*
X18870112Y-171100804D02*
X18746303Y-171038900D01*
X18746303Y-171038900D02*
X18684398Y-170976995D01*
D10*
D11*
X69365350Y-170234138D02*
X69365350Y-171100804D01*
X69055826Y-169738900D02*
X68746303Y-170667471D01*
X68746303Y-170667471D02*
X69551064Y-170667471D01*
D10*
D11*
X119427255Y-169800804D02*
X118808207Y-169800804D01*
X118808207Y-169800804D02*
X118746303Y-170419852D01*
X118746303Y-170419852D02*
X118808207Y-170357947D01*
X118808207Y-170357947D02*
X118932017Y-170296042D01*
X118932017Y-170296042D02*
X119241541Y-170296042D01*
X119241541Y-170296042D02*
X119365350Y-170357947D01*
X119365350Y-170357947D02*
X119427255Y-170419852D01*
X119427255Y-170419852D02*
X119489160Y-170543661D01*
X119489160Y-170543661D02*
X119489160Y-170853185D01*
X119489160Y-170853185D02*
X119427255Y-170976995D01*
X119427255Y-170976995D02*
X119365350Y-171038900D01*
X119365350Y-171038900D02*
X119241541Y-171100804D01*
X119241541Y-171100804D02*
X118932017Y-171100804D01*
X118932017Y-171100804D02*
X118808207Y-171038900D01*
X118808207Y-171038900D02*
X118746303Y-170976995D01*
D10*
D11*
X169365350Y-169800804D02*
X169117731Y-169800804D01*
X169117731Y-169800804D02*
X168993922Y-169862709D01*
X168993922Y-169862709D02*
X168932017Y-169924614D01*
X168932017Y-169924614D02*
X168808207Y-170110328D01*
X168808207Y-170110328D02*
X168746303Y-170357947D01*
X168746303Y-170357947D02*
X168746303Y-170853185D01*
X168746303Y-170853185D02*
X168808207Y-170976995D01*
X168808207Y-170976995D02*
X168870112Y-171038900D01*
X168870112Y-171038900D02*
X168993922Y-171100804D01*
X168993922Y-171100804D02*
X169241541Y-171100804D01*
X169241541Y-171100804D02*
X169365350Y-171038900D01*
X169365350Y-171038900D02*
X169427255Y-170976995D01*
X169427255Y-170976995D02*
X169489160Y-170853185D01*
X169489160Y-170853185D02*
X169489160Y-170543661D01*
X169489160Y-170543661D02*
X169427255Y-170419852D01*
X169427255Y-170419852D02*
X169365350Y-170357947D01*
X169365350Y-170357947D02*
X169241541Y-170296042D01*
X169241541Y-170296042D02*
X168993922Y-170296042D01*
X168993922Y-170296042D02*
X168870112Y-170357947D01*
X168870112Y-170357947D02*
X168808207Y-170419852D01*
X168808207Y-170419852D02*
X168746303Y-170543661D01*
D10*
D11*
X-106600000Y-31500000D02*
X-104600000Y-31500000D01*
D10*
D11*
X-106600000Y-81500000D02*
X-104600000Y-81500000D01*
D10*
D11*
X-106600000Y-131500000D02*
X-104600000Y-131500000D01*
D10*
D11*
X-105909524Y-6722176D02*
X-105290477Y-6722176D01*
X-106033334Y-7093604D02*
X-105600001Y-5793604D01*
X-105600001Y-5793604D02*
X-105166667Y-7093604D01*
D10*
D11*
X-105507143Y-56412652D02*
X-105321429Y-56474557D01*
X-105321429Y-56474557D02*
X-105259524Y-56536461D01*
X-105259524Y-56536461D02*
X-105197620Y-56660271D01*
X-105197620Y-56660271D02*
X-105197620Y-56845985D01*
X-105197620Y-56845985D02*
X-105259524Y-56969795D01*
X-105259524Y-56969795D02*
X-105321429Y-57031700D01*
X-105321429Y-57031700D02*
X-105445239Y-57093604D01*
X-105445239Y-57093604D02*
X-105940477Y-57093604D01*
X-105940477Y-57093604D02*
X-105940477Y-55793604D01*
X-105940477Y-55793604D02*
X-105507143Y-55793604D01*
X-105507143Y-55793604D02*
X-105383334Y-55855509D01*
X-105383334Y-55855509D02*
X-105321429Y-55917414D01*
X-105321429Y-55917414D02*
X-105259524Y-56041223D01*
X-105259524Y-56041223D02*
X-105259524Y-56165033D01*
X-105259524Y-56165033D02*
X-105321429Y-56288842D01*
X-105321429Y-56288842D02*
X-105383334Y-56350747D01*
X-105383334Y-56350747D02*
X-105507143Y-56412652D01*
X-105507143Y-56412652D02*
X-105940477Y-56412652D01*
D10*
D11*
X-105197620Y-106969795D02*
X-105259524Y-107031700D01*
X-105259524Y-107031700D02*
X-105445239Y-107093604D01*
X-105445239Y-107093604D02*
X-105569048Y-107093604D01*
X-105569048Y-107093604D02*
X-105754762Y-107031700D01*
X-105754762Y-107031700D02*
X-105878572Y-106907890D01*
X-105878572Y-106907890D02*
X-105940477Y-106784080D01*
X-105940477Y-106784080D02*
X-106002381Y-106536461D01*
X-106002381Y-106536461D02*
X-106002381Y-106350747D01*
X-106002381Y-106350747D02*
X-105940477Y-106103128D01*
X-105940477Y-106103128D02*
X-105878572Y-105979319D01*
X-105878572Y-105979319D02*
X-105754762Y-105855509D01*
X-105754762Y-105855509D02*
X-105569048Y-105793604D01*
X-105569048Y-105793604D02*
X-105445239Y-105793604D01*
X-105445239Y-105793604D02*
X-105259524Y-105855509D01*
X-105259524Y-105855509D02*
X-105197620Y-105917414D01*
D10*
D11*
X-105940477Y-157093604D02*
X-105940477Y-155793604D01*
X-105940477Y-155793604D02*
X-105630953Y-155793604D01*
X-105630953Y-155793604D02*
X-105445239Y-155855509D01*
X-105445239Y-155855509D02*
X-105321429Y-155979319D01*
X-105321429Y-155979319D02*
X-105259524Y-156103128D01*
X-105259524Y-156103128D02*
X-105197620Y-156350747D01*
X-105197620Y-156350747D02*
X-105197620Y-156536461D01*
X-105197620Y-156536461D02*
X-105259524Y-156784080D01*
X-105259524Y-156784080D02*
X-105321429Y-156907890D01*
X-105321429Y-156907890D02*
X-105445239Y-157031700D01*
X-105445239Y-157031700D02*
X-105630953Y-157093604D01*
X-105630953Y-157093604D02*
X-105940477Y-157093604D01*
D10*
D11*
X170402200Y-31500000D02*
X168402200Y-31500000D01*
D10*
D11*
X170402200Y-81500000D02*
X168402200Y-81500000D01*
D10*
D11*
X170402200Y-131500000D02*
X168402200Y-131500000D01*
D10*
D11*
X169092676Y-6722176D02*
X169711723Y-6722176D01*
X168968866Y-7093604D02*
X169402199Y-5793604D01*
X169402199Y-5793604D02*
X169835533Y-7093604D01*
D10*
D11*
X169495057Y-56412652D02*
X169680771Y-56474557D01*
X169680771Y-56474557D02*
X169742676Y-56536461D01*
X169742676Y-56536461D02*
X169804580Y-56660271D01*
X169804580Y-56660271D02*
X169804580Y-56845985D01*
X169804580Y-56845985D02*
X169742676Y-56969795D01*
X169742676Y-56969795D02*
X169680771Y-57031700D01*
X169680771Y-57031700D02*
X169556961Y-57093604D01*
X169556961Y-57093604D02*
X169061723Y-57093604D01*
X169061723Y-57093604D02*
X169061723Y-55793604D01*
X169061723Y-55793604D02*
X169495057Y-55793604D01*
X169495057Y-55793604D02*
X169618866Y-55855509D01*
X169618866Y-55855509D02*
X169680771Y-55917414D01*
X169680771Y-55917414D02*
X169742676Y-56041223D01*
X169742676Y-56041223D02*
X169742676Y-56165033D01*
X169742676Y-56165033D02*
X169680771Y-56288842D01*
X169680771Y-56288842D02*
X169618866Y-56350747D01*
X169618866Y-56350747D02*
X169495057Y-56412652D01*
X169495057Y-56412652D02*
X169061723Y-56412652D01*
D10*
D11*
X169804580Y-106969795D02*
X169742676Y-107031700D01*
X169742676Y-107031700D02*
X169556961Y-107093604D01*
X169556961Y-107093604D02*
X169433152Y-107093604D01*
X169433152Y-107093604D02*
X169247438Y-107031700D01*
X169247438Y-107031700D02*
X169123628Y-106907890D01*
X169123628Y-106907890D02*
X169061723Y-106784080D01*
X169061723Y-106784080D02*
X168999819Y-106536461D01*
X168999819Y-106536461D02*
X168999819Y-106350747D01*
X168999819Y-106350747D02*
X169061723Y-106103128D01*
X169061723Y-106103128D02*
X169123628Y-105979319D01*
X169123628Y-105979319D02*
X169247438Y-105855509D01*
X169247438Y-105855509D02*
X169433152Y-105793604D01*
X169433152Y-105793604D02*
X169556961Y-105793604D01*
X169556961Y-105793604D02*
X169742676Y-105855509D01*
X169742676Y-105855509D02*
X169804580Y-105917414D01*
D10*
D11*
X169061723Y-157093604D02*
X169061723Y-155793604D01*
X169061723Y-155793604D02*
X169371247Y-155793604D01*
X169371247Y-155793604D02*
X169556961Y-155855509D01*
X169556961Y-155855509D02*
X169680771Y-155979319D01*
X169680771Y-155979319D02*
X169742676Y-156103128D01*
X169742676Y-156103128D02*
X169804580Y-156350747D01*
X169804580Y-156350747D02*
X169804580Y-156536461D01*
X169804580Y-156536461D02*
X169742676Y-156784080D01*
X169742676Y-156784080D02*
X169680771Y-156907890D01*
X169680771Y-156907890D02*
X169556961Y-157031700D01*
X169556961Y-157031700D02*
X169371247Y-157093604D01*
X169371247Y-157093604D02*
X169061723Y-157093604D01*
D10*
D11*
X83858026Y-165293328D02*
X83858026Y-163793328D01*
X83858026Y-163793328D02*
X84215169Y-163793328D01*
X84215169Y-163793328D02*
X84429455Y-163864757D01*
X84429455Y-163864757D02*
X84572312Y-164007614D01*
X84572312Y-164007614D02*
X84643741Y-164150471D01*
X84643741Y-164150471D02*
X84715169Y-164436185D01*
X84715169Y-164436185D02*
X84715169Y-164650471D01*
X84715169Y-164650471D02*
X84643741Y-164936185D01*
X84643741Y-164936185D02*
X84572312Y-165079042D01*
X84572312Y-165079042D02*
X84429455Y-165221900D01*
X84429455Y-165221900D02*
X84215169Y-165293328D01*
X84215169Y-165293328D02*
X83858026Y-165293328D01*
X86000884Y-165293328D02*
X86000884Y-164507614D01*
X86000884Y-164507614D02*
X85929455Y-164364757D01*
X85929455Y-164364757D02*
X85786598Y-164293328D01*
X85786598Y-164293328D02*
X85500884Y-164293328D01*
X85500884Y-164293328D02*
X85358026Y-164364757D01*
X86000884Y-165221900D02*
X85858026Y-165293328D01*
X85858026Y-165293328D02*
X85500884Y-165293328D01*
X85500884Y-165293328D02*
X85358026Y-165221900D01*
X85358026Y-165221900D02*
X85286598Y-165079042D01*
X85286598Y-165079042D02*
X85286598Y-164936185D01*
X85286598Y-164936185D02*
X85358026Y-164793328D01*
X85358026Y-164793328D02*
X85500884Y-164721900D01*
X85500884Y-164721900D02*
X85858026Y-164721900D01*
X85858026Y-164721900D02*
X86000884Y-164650471D01*
X86500884Y-164293328D02*
X87072312Y-164293328D01*
X86715169Y-163793328D02*
X86715169Y-165079042D01*
X86715169Y-165079042D02*
X86786598Y-165221900D01*
X86786598Y-165221900D02*
X86929455Y-165293328D01*
X86929455Y-165293328D02*
X87072312Y-165293328D01*
X88143741Y-165221900D02*
X88000884Y-165293328D01*
X88000884Y-165293328D02*
X87715170Y-165293328D01*
X87715170Y-165293328D02*
X87572312Y-165221900D01*
X87572312Y-165221900D02*
X87500884Y-165079042D01*
X87500884Y-165079042D02*
X87500884Y-164507614D01*
X87500884Y-164507614D02*
X87572312Y-164364757D01*
X87572312Y-164364757D02*
X87715170Y-164293328D01*
X87715170Y-164293328D02*
X88000884Y-164293328D01*
X88000884Y-164293328D02*
X88143741Y-164364757D01*
X88143741Y-164364757D02*
X88215170Y-164507614D01*
X88215170Y-164507614D02*
X88215170Y-164650471D01*
X88215170Y-164650471D02*
X87500884Y-164793328D01*
X88858026Y-165150471D02*
X88929455Y-165221900D01*
X88929455Y-165221900D02*
X88858026Y-165293328D01*
X88858026Y-165293328D02*
X88786598Y-165221900D01*
X88786598Y-165221900D02*
X88858026Y-165150471D01*
X88858026Y-165150471D02*
X88858026Y-165293328D01*
X88858026Y-164364757D02*
X88929455Y-164436185D01*
X88929455Y-164436185D02*
X88858026Y-164507614D01*
X88858026Y-164507614D02*
X88786598Y-164436185D01*
X88786598Y-164436185D02*
X88858026Y-164364757D01*
X88858026Y-164364757D02*
X88858026Y-164507614D01*
X90643741Y-163936185D02*
X90715169Y-163864757D01*
X90715169Y-163864757D02*
X90858027Y-163793328D01*
X90858027Y-163793328D02*
X91215169Y-163793328D01*
X91215169Y-163793328D02*
X91358027Y-163864757D01*
X91358027Y-163864757D02*
X91429455Y-163936185D01*
X91429455Y-163936185D02*
X91500884Y-164079042D01*
X91500884Y-164079042D02*
X91500884Y-164221900D01*
X91500884Y-164221900D02*
X91429455Y-164436185D01*
X91429455Y-164436185D02*
X90572312Y-165293328D01*
X90572312Y-165293328D02*
X91500884Y-165293328D01*
X92429455Y-163793328D02*
X92572312Y-163793328D01*
X92572312Y-163793328D02*
X92715169Y-163864757D01*
X92715169Y-163864757D02*
X92786598Y-163936185D01*
X92786598Y-163936185D02*
X92858026Y-164079042D01*
X92858026Y-164079042D02*
X92929455Y-164364757D01*
X92929455Y-164364757D02*
X92929455Y-164721900D01*
X92929455Y-164721900D02*
X92858026Y-165007614D01*
X92858026Y-165007614D02*
X92786598Y-165150471D01*
X92786598Y-165150471D02*
X92715169Y-165221900D01*
X92715169Y-165221900D02*
X92572312Y-165293328D01*
X92572312Y-165293328D02*
X92429455Y-165293328D01*
X92429455Y-165293328D02*
X92286598Y-165221900D01*
X92286598Y-165221900D02*
X92215169Y-165150471D01*
X92215169Y-165150471D02*
X92143740Y-165007614D01*
X92143740Y-165007614D02*
X92072312Y-164721900D01*
X92072312Y-164721900D02*
X92072312Y-164364757D01*
X92072312Y-164364757D02*
X92143740Y-164079042D01*
X92143740Y-164079042D02*
X92215169Y-163936185D01*
X92215169Y-163936185D02*
X92286598Y-163864757D01*
X92286598Y-163864757D02*
X92429455Y-163793328D01*
X93500883Y-163936185D02*
X93572311Y-163864757D01*
X93572311Y-163864757D02*
X93715169Y-163793328D01*
X93715169Y-163793328D02*
X94072311Y-163793328D01*
X94072311Y-163793328D02*
X94215169Y-163864757D01*
X94215169Y-163864757D02*
X94286597Y-163936185D01*
X94286597Y-163936185D02*
X94358026Y-164079042D01*
X94358026Y-164079042D02*
X94358026Y-164221900D01*
X94358026Y-164221900D02*
X94286597Y-164436185D01*
X94286597Y-164436185D02*
X93429454Y-165293328D01*
X93429454Y-165293328D02*
X94358026Y-165293328D01*
X95643740Y-164293328D02*
X95643740Y-165293328D01*
X95286597Y-163721900D02*
X94929454Y-164793328D01*
X94929454Y-164793328D02*
X95858025Y-164793328D01*
X96429453Y-164721900D02*
X97572311Y-164721900D01*
X98572311Y-163793328D02*
X98715168Y-163793328D01*
X98715168Y-163793328D02*
X98858025Y-163864757D01*
X98858025Y-163864757D02*
X98929454Y-163936185D01*
X98929454Y-163936185D02*
X99000882Y-164079042D01*
X99000882Y-164079042D02*
X99072311Y-164364757D01*
X99072311Y-164364757D02*
X99072311Y-164721900D01*
X99072311Y-164721900D02*
X99000882Y-165007614D01*
X99000882Y-165007614D02*
X98929454Y-165150471D01*
X98929454Y-165150471D02*
X98858025Y-165221900D01*
X98858025Y-165221900D02*
X98715168Y-165293328D01*
X98715168Y-165293328D02*
X98572311Y-165293328D01*
X98572311Y-165293328D02*
X98429454Y-165221900D01*
X98429454Y-165221900D02*
X98358025Y-165150471D01*
X98358025Y-165150471D02*
X98286596Y-165007614D01*
X98286596Y-165007614D02*
X98215168Y-164721900D01*
X98215168Y-164721900D02*
X98215168Y-164364757D01*
X98215168Y-164364757D02*
X98286596Y-164079042D01*
X98286596Y-164079042D02*
X98358025Y-163936185D01*
X98358025Y-163936185D02*
X98429454Y-163864757D01*
X98429454Y-163864757D02*
X98572311Y-163793328D01*
X99643739Y-163936185D02*
X99715167Y-163864757D01*
X99715167Y-163864757D02*
X99858025Y-163793328D01*
X99858025Y-163793328D02*
X100215167Y-163793328D01*
X100215167Y-163793328D02*
X100358025Y-163864757D01*
X100358025Y-163864757D02*
X100429453Y-163936185D01*
X100429453Y-163936185D02*
X100500882Y-164079042D01*
X100500882Y-164079042D02*
X100500882Y-164221900D01*
X100500882Y-164221900D02*
X100429453Y-164436185D01*
X100429453Y-164436185D02*
X99572310Y-165293328D01*
X99572310Y-165293328D02*
X100500882Y-165293328D01*
X101143738Y-164721900D02*
X102286596Y-164721900D01*
X102929453Y-163936185D02*
X103000881Y-163864757D01*
X103000881Y-163864757D02*
X103143739Y-163793328D01*
X103143739Y-163793328D02*
X103500881Y-163793328D01*
X103500881Y-163793328D02*
X103643739Y-163864757D01*
X103643739Y-163864757D02*
X103715167Y-163936185D01*
X103715167Y-163936185D02*
X103786596Y-164079042D01*
X103786596Y-164079042D02*
X103786596Y-164221900D01*
X103786596Y-164221900D02*
X103715167Y-164436185D01*
X103715167Y-164436185D02*
X102858024Y-165293328D01*
X102858024Y-165293328D02*
X103786596Y-165293328D01*
X104286595Y-163793328D02*
X105286595Y-163793328D01*
X105286595Y-163793328D02*
X104643738Y-165293328D01*
D10*
D11*
X60402200Y-166007200D02*
X168402200Y-166007200D01*
D10*
D11*
X61858026Y-168093328D02*
X61858026Y-166593328D01*
X62715169Y-168093328D02*
X62072312Y-167236185D01*
X62715169Y-166593328D02*
X61858026Y-167450471D01*
X63358026Y-168093328D02*
X63358026Y-167093328D01*
X63358026Y-166593328D02*
X63286598Y-166664757D01*
X63286598Y-166664757D02*
X63358026Y-166736185D01*
X63358026Y-166736185D02*
X63429455Y-166664757D01*
X63429455Y-166664757D02*
X63358026Y-166593328D01*
X63358026Y-166593328D02*
X63358026Y-166736185D01*
X64929455Y-167950471D02*
X64858027Y-168021900D01*
X64858027Y-168021900D02*
X64643741Y-168093328D01*
X64643741Y-168093328D02*
X64500884Y-168093328D01*
X64500884Y-168093328D02*
X64286598Y-168021900D01*
X64286598Y-168021900D02*
X64143741Y-167879042D01*
X64143741Y-167879042D02*
X64072312Y-167736185D01*
X64072312Y-167736185D02*
X64000884Y-167450471D01*
X64000884Y-167450471D02*
X64000884Y-167236185D01*
X64000884Y-167236185D02*
X64072312Y-166950471D01*
X64072312Y-166950471D02*
X64143741Y-166807614D01*
X64143741Y-166807614D02*
X64286598Y-166664757D01*
X64286598Y-166664757D02*
X64500884Y-166593328D01*
X64500884Y-166593328D02*
X64643741Y-166593328D01*
X64643741Y-166593328D02*
X64858027Y-166664757D01*
X64858027Y-166664757D02*
X64929455Y-166736185D01*
X66215170Y-168093328D02*
X66215170Y-167307614D01*
X66215170Y-167307614D02*
X66143741Y-167164757D01*
X66143741Y-167164757D02*
X66000884Y-167093328D01*
X66000884Y-167093328D02*
X65715170Y-167093328D01*
X65715170Y-167093328D02*
X65572312Y-167164757D01*
X66215170Y-168021900D02*
X66072312Y-168093328D01*
X66072312Y-168093328D02*
X65715170Y-168093328D01*
X65715170Y-168093328D02*
X65572312Y-168021900D01*
X65572312Y-168021900D02*
X65500884Y-167879042D01*
X65500884Y-167879042D02*
X65500884Y-167736185D01*
X65500884Y-167736185D02*
X65572312Y-167593328D01*
X65572312Y-167593328D02*
X65715170Y-167521900D01*
X65715170Y-167521900D02*
X66072312Y-167521900D01*
X66072312Y-167521900D02*
X66215170Y-167450471D01*
X67572313Y-168093328D02*
X67572313Y-166593328D01*
X67572313Y-168021900D02*
X67429455Y-168093328D01*
X67429455Y-168093328D02*
X67143741Y-168093328D01*
X67143741Y-168093328D02*
X67000884Y-168021900D01*
X67000884Y-168021900D02*
X66929455Y-167950471D01*
X66929455Y-167950471D02*
X66858027Y-167807614D01*
X66858027Y-167807614D02*
X66858027Y-167379042D01*
X66858027Y-167379042D02*
X66929455Y-167236185D01*
X66929455Y-167236185D02*
X67000884Y-167164757D01*
X67000884Y-167164757D02*
X67143741Y-167093328D01*
X67143741Y-167093328D02*
X67429455Y-167093328D01*
X67429455Y-167093328D02*
X67572313Y-167164757D01*
X69429455Y-167307614D02*
X69929455Y-167307614D01*
X70143741Y-168093328D02*
X69429455Y-168093328D01*
X69429455Y-168093328D02*
X69429455Y-166593328D01*
X69429455Y-166593328D02*
X70143741Y-166593328D01*
X70786598Y-167950471D02*
X70858027Y-168021900D01*
X70858027Y-168021900D02*
X70786598Y-168093328D01*
X70786598Y-168093328D02*
X70715170Y-168021900D01*
X70715170Y-168021900D02*
X70786598Y-167950471D01*
X70786598Y-167950471D02*
X70786598Y-168093328D01*
X71500884Y-168093328D02*
X71500884Y-166593328D01*
X71500884Y-166593328D02*
X71858027Y-166593328D01*
X71858027Y-166593328D02*
X72072313Y-166664757D01*
X72072313Y-166664757D02*
X72215170Y-166807614D01*
X72215170Y-166807614D02*
X72286599Y-166950471D01*
X72286599Y-166950471D02*
X72358027Y-167236185D01*
X72358027Y-167236185D02*
X72358027Y-167450471D01*
X72358027Y-167450471D02*
X72286599Y-167736185D01*
X72286599Y-167736185D02*
X72215170Y-167879042D01*
X72215170Y-167879042D02*
X72072313Y-168021900D01*
X72072313Y-168021900D02*
X71858027Y-168093328D01*
X71858027Y-168093328D02*
X71500884Y-168093328D01*
X73000884Y-167950471D02*
X73072313Y-168021900D01*
X73072313Y-168021900D02*
X73000884Y-168093328D01*
X73000884Y-168093328D02*
X72929456Y-168021900D01*
X72929456Y-168021900D02*
X73000884Y-167950471D01*
X73000884Y-167950471D02*
X73000884Y-168093328D01*
X73643742Y-167664757D02*
X74358028Y-167664757D01*
X73500885Y-168093328D02*
X74000885Y-166593328D01*
X74000885Y-166593328D02*
X74500885Y-168093328D01*
X75000884Y-167950471D02*
X75072313Y-168021900D01*
X75072313Y-168021900D02*
X75000884Y-168093328D01*
X75000884Y-168093328D02*
X74929456Y-168021900D01*
X74929456Y-168021900D02*
X75000884Y-167950471D01*
X75000884Y-167950471D02*
X75000884Y-168093328D01*
X77072313Y-167236185D02*
X76929456Y-167164757D01*
X76929456Y-167164757D02*
X76858027Y-167093328D01*
X76858027Y-167093328D02*
X76786599Y-166950471D01*
X76786599Y-166950471D02*
X76786599Y-166879042D01*
X76786599Y-166879042D02*
X76858027Y-166736185D01*
X76858027Y-166736185D02*
X76929456Y-166664757D01*
X76929456Y-166664757D02*
X77072313Y-166593328D01*
X77072313Y-166593328D02*
X77358027Y-166593328D01*
X77358027Y-166593328D02*
X77500885Y-166664757D01*
X77500885Y-166664757D02*
X77572313Y-166736185D01*
X77572313Y-166736185D02*
X77643742Y-166879042D01*
X77643742Y-166879042D02*
X77643742Y-166950471D01*
X77643742Y-166950471D02*
X77572313Y-167093328D01*
X77572313Y-167093328D02*
X77500885Y-167164757D01*
X77500885Y-167164757D02*
X77358027Y-167236185D01*
X77358027Y-167236185D02*
X77072313Y-167236185D01*
X77072313Y-167236185D02*
X76929456Y-167307614D01*
X76929456Y-167307614D02*
X76858027Y-167379042D01*
X76858027Y-167379042D02*
X76786599Y-167521900D01*
X76786599Y-167521900D02*
X76786599Y-167807614D01*
X76786599Y-167807614D02*
X76858027Y-167950471D01*
X76858027Y-167950471D02*
X76929456Y-168021900D01*
X76929456Y-168021900D02*
X77072313Y-168093328D01*
X77072313Y-168093328D02*
X77358027Y-168093328D01*
X77358027Y-168093328D02*
X77500885Y-168021900D01*
X77500885Y-168021900D02*
X77572313Y-167950471D01*
X77572313Y-167950471D02*
X77643742Y-167807614D01*
X77643742Y-167807614D02*
X77643742Y-167521900D01*
X77643742Y-167521900D02*
X77572313Y-167379042D01*
X77572313Y-167379042D02*
X77500885Y-167307614D01*
X77500885Y-167307614D02*
X77358027Y-167236185D01*
X78286598Y-167950471D02*
X78358027Y-168021900D01*
X78358027Y-168021900D02*
X78286598Y-168093328D01*
X78286598Y-168093328D02*
X78215170Y-168021900D01*
X78215170Y-168021900D02*
X78286598Y-167950471D01*
X78286598Y-167950471D02*
X78286598Y-168093328D01*
X79286599Y-166593328D02*
X79429456Y-166593328D01*
X79429456Y-166593328D02*
X79572313Y-166664757D01*
X79572313Y-166664757D02*
X79643742Y-166736185D01*
X79643742Y-166736185D02*
X79715170Y-166879042D01*
X79715170Y-166879042D02*
X79786599Y-167164757D01*
X79786599Y-167164757D02*
X79786599Y-167521900D01*
X79786599Y-167521900D02*
X79715170Y-167807614D01*
X79715170Y-167807614D02*
X79643742Y-167950471D01*
X79643742Y-167950471D02*
X79572313Y-168021900D01*
X79572313Y-168021900D02*
X79429456Y-168093328D01*
X79429456Y-168093328D02*
X79286599Y-168093328D01*
X79286599Y-168093328D02*
X79143742Y-168021900D01*
X79143742Y-168021900D02*
X79072313Y-167950471D01*
X79072313Y-167950471D02*
X79000884Y-167807614D01*
X79000884Y-167807614D02*
X78929456Y-167521900D01*
X78929456Y-167521900D02*
X78929456Y-167164757D01*
X78929456Y-167164757D02*
X79000884Y-166879042D01*
X79000884Y-166879042D02*
X79072313Y-166736185D01*
X79072313Y-166736185D02*
X79143742Y-166664757D01*
X79143742Y-166664757D02*
X79286599Y-166593328D01*
X80429455Y-167950471D02*
X80500884Y-168021900D01*
X80500884Y-168021900D02*
X80429455Y-168093328D01*
X80429455Y-168093328D02*
X80358027Y-168021900D01*
X80358027Y-168021900D02*
X80429455Y-167950471D01*
X80429455Y-167950471D02*
X80429455Y-168093328D01*
X81429456Y-166593328D02*
X81572313Y-166593328D01*
X81572313Y-166593328D02*
X81715170Y-166664757D01*
X81715170Y-166664757D02*
X81786599Y-166736185D01*
X81786599Y-166736185D02*
X81858027Y-166879042D01*
X81858027Y-166879042D02*
X81929456Y-167164757D01*
X81929456Y-167164757D02*
X81929456Y-167521900D01*
X81929456Y-167521900D02*
X81858027Y-167807614D01*
X81858027Y-167807614D02*
X81786599Y-167950471D01*
X81786599Y-167950471D02*
X81715170Y-168021900D01*
X81715170Y-168021900D02*
X81572313Y-168093328D01*
X81572313Y-168093328D02*
X81429456Y-168093328D01*
X81429456Y-168093328D02*
X81286599Y-168021900D01*
X81286599Y-168021900D02*
X81215170Y-167950471D01*
X81215170Y-167950471D02*
X81143741Y-167807614D01*
X81143741Y-167807614D02*
X81072313Y-167521900D01*
X81072313Y-167521900D02*
X81072313Y-167164757D01*
X81072313Y-167164757D02*
X81143741Y-166879042D01*
X81143741Y-166879042D02*
X81215170Y-166736185D01*
X81215170Y-166736185D02*
X81286599Y-166664757D01*
X81286599Y-166664757D02*
X81429456Y-166593328D01*
D10*
D11*
X60402200Y-163007200D02*
X168402200Y-163007200D01*
D10*
D12*
X147813853Y-165285528D02*
X147313853Y-164571242D01*
X146956710Y-165285528D02*
X146956710Y-163785528D01*
X146956710Y-163785528D02*
X147528139Y-163785528D01*
X147528139Y-163785528D02*
X147670996Y-163856957D01*
X147670996Y-163856957D02*
X147742425Y-163928385D01*
X147742425Y-163928385D02*
X147813853Y-164071242D01*
X147813853Y-164071242D02*
X147813853Y-164285528D01*
X147813853Y-164285528D02*
X147742425Y-164428385D01*
X147742425Y-164428385D02*
X147670996Y-164499814D01*
X147670996Y-164499814D02*
X147528139Y-164571242D01*
X147528139Y-164571242D02*
X146956710Y-164571242D01*
X149028139Y-165214100D02*
X148885282Y-165285528D01*
X148885282Y-165285528D02*
X148599568Y-165285528D01*
X148599568Y-165285528D02*
X148456710Y-165214100D01*
X148456710Y-165214100D02*
X148385282Y-165071242D01*
X148385282Y-165071242D02*
X148385282Y-164499814D01*
X148385282Y-164499814D02*
X148456710Y-164356957D01*
X148456710Y-164356957D02*
X148599568Y-164285528D01*
X148599568Y-164285528D02*
X148885282Y-164285528D01*
X148885282Y-164285528D02*
X149028139Y-164356957D01*
X149028139Y-164356957D02*
X149099568Y-164499814D01*
X149099568Y-164499814D02*
X149099568Y-164642671D01*
X149099568Y-164642671D02*
X148385282Y-164785528D01*
X149599567Y-164285528D02*
X149956710Y-165285528D01*
X149956710Y-165285528D02*
X150313853Y-164285528D01*
X150885281Y-165142671D02*
X150956710Y-165214100D01*
X150956710Y-165214100D02*
X150885281Y-165285528D01*
X150885281Y-165285528D02*
X150813853Y-165214100D01*
X150813853Y-165214100D02*
X150885281Y-165142671D01*
X150885281Y-165142671D02*
X150885281Y-165285528D01*
X150885281Y-164356957D02*
X150956710Y-164428385D01*
X150956710Y-164428385D02*
X150885281Y-164499814D01*
X150885281Y-164499814D02*
X150813853Y-164428385D01*
X150813853Y-164428385D02*
X150885281Y-164356957D01*
X150885281Y-164356957D02*
X150885281Y-164499814D01*
D10*
D11*
X61786598Y-165221900D02*
X62000884Y-165293328D01*
X62000884Y-165293328D02*
X62358026Y-165293328D01*
X62358026Y-165293328D02*
X62500884Y-165221900D01*
X62500884Y-165221900D02*
X62572312Y-165150471D01*
X62572312Y-165150471D02*
X62643741Y-165007614D01*
X62643741Y-165007614D02*
X62643741Y-164864757D01*
X62643741Y-164864757D02*
X62572312Y-164721900D01*
X62572312Y-164721900D02*
X62500884Y-164650471D01*
X62500884Y-164650471D02*
X62358026Y-164579042D01*
X62358026Y-164579042D02*
X62072312Y-164507614D01*
X62072312Y-164507614D02*
X61929455Y-164436185D01*
X61929455Y-164436185D02*
X61858026Y-164364757D01*
X61858026Y-164364757D02*
X61786598Y-164221900D01*
X61786598Y-164221900D02*
X61786598Y-164079042D01*
X61786598Y-164079042D02*
X61858026Y-163936185D01*
X61858026Y-163936185D02*
X61929455Y-163864757D01*
X61929455Y-163864757D02*
X62072312Y-163793328D01*
X62072312Y-163793328D02*
X62429455Y-163793328D01*
X62429455Y-163793328D02*
X62643741Y-163864757D01*
X63286597Y-165293328D02*
X63286597Y-164293328D01*
X63286597Y-163793328D02*
X63215169Y-163864757D01*
X63215169Y-163864757D02*
X63286597Y-163936185D01*
X63286597Y-163936185D02*
X63358026Y-163864757D01*
X63358026Y-163864757D02*
X63286597Y-163793328D01*
X63286597Y-163793328D02*
X63286597Y-163936185D01*
X63858026Y-164293328D02*
X64643741Y-164293328D01*
X64643741Y-164293328D02*
X63858026Y-165293328D01*
X63858026Y-165293328D02*
X64643741Y-165293328D01*
X65786598Y-165221900D02*
X65643741Y-165293328D01*
X65643741Y-165293328D02*
X65358027Y-165293328D01*
X65358027Y-165293328D02*
X65215169Y-165221900D01*
X65215169Y-165221900D02*
X65143741Y-165079042D01*
X65143741Y-165079042D02*
X65143741Y-164507614D01*
X65143741Y-164507614D02*
X65215169Y-164364757D01*
X65215169Y-164364757D02*
X65358027Y-164293328D01*
X65358027Y-164293328D02*
X65643741Y-164293328D01*
X65643741Y-164293328D02*
X65786598Y-164364757D01*
X65786598Y-164364757D02*
X65858027Y-164507614D01*
X65858027Y-164507614D02*
X65858027Y-164650471D01*
X65858027Y-164650471D02*
X65143741Y-164793328D01*
X66500883Y-165150471D02*
X66572312Y-165221900D01*
X66572312Y-165221900D02*
X66500883Y-165293328D01*
X66500883Y-165293328D02*
X66429455Y-165221900D01*
X66429455Y-165221900D02*
X66500883Y-165150471D01*
X66500883Y-165150471D02*
X66500883Y-165293328D01*
X66500883Y-164364757D02*
X66572312Y-164436185D01*
X66572312Y-164436185D02*
X66500883Y-164507614D01*
X66500883Y-164507614D02*
X66429455Y-164436185D01*
X66429455Y-164436185D02*
X66500883Y-164364757D01*
X66500883Y-164364757D02*
X66500883Y-164507614D01*
X68286598Y-164864757D02*
X69000884Y-164864757D01*
X68143741Y-165293328D02*
X68643741Y-163793328D01*
X68643741Y-163793328D02*
X69143741Y-165293328D01*
X70286598Y-164293328D02*
X70286598Y-165293328D01*
X69929455Y-163721900D02*
X69572312Y-164793328D01*
X69572312Y-164793328D02*
X70500883Y-164793328D01*
D10*
D11*
X146858026Y-168093328D02*
X146858026Y-166593328D01*
X148215170Y-168093328D02*
X148215170Y-166593328D01*
X148215170Y-168021900D02*
X148072312Y-168093328D01*
X148072312Y-168093328D02*
X147786598Y-168093328D01*
X147786598Y-168093328D02*
X147643741Y-168021900D01*
X147643741Y-168021900D02*
X147572312Y-167950471D01*
X147572312Y-167950471D02*
X147500884Y-167807614D01*
X147500884Y-167807614D02*
X147500884Y-167379042D01*
X147500884Y-167379042D02*
X147572312Y-167236185D01*
X147572312Y-167236185D02*
X147643741Y-167164757D01*
X147643741Y-167164757D02*
X147786598Y-167093328D01*
X147786598Y-167093328D02*
X148072312Y-167093328D01*
X148072312Y-167093328D02*
X148215170Y-167164757D01*
X148929455Y-167950471D02*
X149000884Y-168021900D01*
X149000884Y-168021900D02*
X148929455Y-168093328D01*
X148929455Y-168093328D02*
X148858027Y-168021900D01*
X148858027Y-168021900D02*
X148929455Y-167950471D01*
X148929455Y-167950471D02*
X148929455Y-168093328D01*
X148929455Y-167164757D02*
X149000884Y-167236185D01*
X149000884Y-167236185D02*
X148929455Y-167307614D01*
X148929455Y-167307614D02*
X148858027Y-167236185D01*
X148858027Y-167236185D02*
X148929455Y-167164757D01*
X148929455Y-167164757D02*
X148929455Y-167307614D01*
X151572313Y-168093328D02*
X150715170Y-168093328D01*
X151143741Y-168093328D02*
X151143741Y-166593328D01*
X151143741Y-166593328D02*
X151000884Y-166807614D01*
X151000884Y-166807614D02*
X150858027Y-166950471D01*
X150858027Y-166950471D02*
X150715170Y-167021900D01*
X153286598Y-166521900D02*
X152000884Y-168450471D01*
X154572313Y-168093328D02*
X153715170Y-168093328D01*
X154143741Y-168093328D02*
X154143741Y-166593328D01*
X154143741Y-166593328D02*
X154000884Y-166807614D01*
X154000884Y-166807614D02*
X153858027Y-166950471D01*
X153858027Y-166950471D02*
X153715170Y-167021900D01*
D10*
D11*
X60402200Y-159007200D02*
X168402200Y-159007200D01*
D10*
D13*
X62093928Y-159711638D02*
X63236785Y-159711638D01*
X62415357Y-161711638D02*
X62665357Y-159711638D01*
X63653452Y-161711638D02*
X63820119Y-160378304D01*
X63903452Y-159711638D02*
X63796309Y-159806876D01*
X63796309Y-159806876D02*
X63879643Y-159902114D01*
X63879643Y-159902114D02*
X63986786Y-159806876D01*
X63986786Y-159806876D02*
X63903452Y-159711638D01*
X63903452Y-159711638D02*
X63879643Y-159902114D01*
X64486786Y-160378304D02*
X65248690Y-160378304D01*
X64855833Y-159711638D02*
X64641548Y-161425923D01*
X64641548Y-161425923D02*
X64712976Y-161616400D01*
X64712976Y-161616400D02*
X64891548Y-161711638D01*
X64891548Y-161711638D02*
X65082024Y-161711638D01*
X66034405Y-161711638D02*
X65855833Y-161616400D01*
X65855833Y-161616400D02*
X65784405Y-161425923D01*
X65784405Y-161425923D02*
X65998690Y-159711638D01*
X67570119Y-161616400D02*
X67367738Y-161711638D01*
X67367738Y-161711638D02*
X66986785Y-161711638D01*
X66986785Y-161711638D02*
X66808214Y-161616400D01*
X66808214Y-161616400D02*
X66736785Y-161425923D01*
X66736785Y-161425923D02*
X66832024Y-160664019D01*
X66832024Y-160664019D02*
X66951071Y-160473542D01*
X66951071Y-160473542D02*
X67153452Y-160378304D01*
X67153452Y-160378304D02*
X67534404Y-160378304D01*
X67534404Y-160378304D02*
X67712976Y-160473542D01*
X67712976Y-160473542D02*
X67784404Y-160664019D01*
X67784404Y-160664019D02*
X67760595Y-160854495D01*
X67760595Y-160854495D02*
X66784404Y-161044971D01*
X68534405Y-161521161D02*
X68617738Y-161616400D01*
X68617738Y-161616400D02*
X68510595Y-161711638D01*
X68510595Y-161711638D02*
X68427262Y-161616400D01*
X68427262Y-161616400D02*
X68534405Y-161521161D01*
X68534405Y-161521161D02*
X68510595Y-161711638D01*
X68665357Y-160473542D02*
X68748690Y-160568780D01*
X68748690Y-160568780D02*
X68641548Y-160664019D01*
X68641548Y-160664019D02*
X68558214Y-160568780D01*
X68558214Y-160568780D02*
X68665357Y-160473542D01*
X68665357Y-160473542D02*
X68641548Y-160664019D01*
D10*
D11*
X62358026Y-157107614D02*
X61858026Y-157107614D01*
X61858026Y-157893328D02*
X61858026Y-156393328D01*
X61858026Y-156393328D02*
X62572312Y-156393328D01*
X63143740Y-157893328D02*
X63143740Y-156893328D01*
X63143740Y-156393328D02*
X63072312Y-156464757D01*
X63072312Y-156464757D02*
X63143740Y-156536185D01*
X63143740Y-156536185D02*
X63215169Y-156464757D01*
X63215169Y-156464757D02*
X63143740Y-156393328D01*
X63143740Y-156393328D02*
X63143740Y-156536185D01*
X64072312Y-157893328D02*
X63929455Y-157821900D01*
X63929455Y-157821900D02*
X63858026Y-157679042D01*
X63858026Y-157679042D02*
X63858026Y-156393328D01*
X65215169Y-157821900D02*
X65072312Y-157893328D01*
X65072312Y-157893328D02*
X64786598Y-157893328D01*
X64786598Y-157893328D02*
X64643740Y-157821900D01*
X64643740Y-157821900D02*
X64572312Y-157679042D01*
X64572312Y-157679042D02*
X64572312Y-157107614D01*
X64572312Y-157107614D02*
X64643740Y-156964757D01*
X64643740Y-156964757D02*
X64786598Y-156893328D01*
X64786598Y-156893328D02*
X65072312Y-156893328D01*
X65072312Y-156893328D02*
X65215169Y-156964757D01*
X65215169Y-156964757D02*
X65286598Y-157107614D01*
X65286598Y-157107614D02*
X65286598Y-157250471D01*
X65286598Y-157250471D02*
X64572312Y-157393328D01*
X65929454Y-157750471D02*
X66000883Y-157821900D01*
X66000883Y-157821900D02*
X65929454Y-157893328D01*
X65929454Y-157893328D02*
X65858026Y-157821900D01*
X65858026Y-157821900D02*
X65929454Y-157750471D01*
X65929454Y-157750471D02*
X65929454Y-157893328D01*
X65929454Y-156964757D02*
X66000883Y-157036185D01*
X66000883Y-157036185D02*
X65929454Y-157107614D01*
X65929454Y-157107614D02*
X65858026Y-157036185D01*
X65858026Y-157036185D02*
X65929454Y-156964757D01*
X65929454Y-156964757D02*
X65929454Y-157107614D01*
X67786597Y-157107614D02*
X68286597Y-157107614D01*
X68500883Y-157893328D02*
X67786597Y-157893328D01*
X67786597Y-157893328D02*
X67786597Y-156393328D01*
X67786597Y-156393328D02*
X68500883Y-156393328D01*
X69072312Y-157821900D02*
X69286598Y-157893328D01*
X69286598Y-157893328D02*
X69643740Y-157893328D01*
X69643740Y-157893328D02*
X69786598Y-157821900D01*
X69786598Y-157821900D02*
X69858026Y-157750471D01*
X69858026Y-157750471D02*
X69929455Y-157607614D01*
X69929455Y-157607614D02*
X69929455Y-157464757D01*
X69929455Y-157464757D02*
X69858026Y-157321900D01*
X69858026Y-157321900D02*
X69786598Y-157250471D01*
X69786598Y-157250471D02*
X69643740Y-157179042D01*
X69643740Y-157179042D02*
X69358026Y-157107614D01*
X69358026Y-157107614D02*
X69215169Y-157036185D01*
X69215169Y-157036185D02*
X69143740Y-156964757D01*
X69143740Y-156964757D02*
X69072312Y-156821900D01*
X69072312Y-156821900D02*
X69072312Y-156679042D01*
X69072312Y-156679042D02*
X69143740Y-156536185D01*
X69143740Y-156536185D02*
X69215169Y-156464757D01*
X69215169Y-156464757D02*
X69358026Y-156393328D01*
X69358026Y-156393328D02*
X69715169Y-156393328D01*
X69715169Y-156393328D02*
X69929455Y-156464757D01*
X70572311Y-157893328D02*
X70572311Y-156393328D01*
X70572311Y-156393328D02*
X71143740Y-156393328D01*
X71143740Y-156393328D02*
X71286597Y-156464757D01*
X71286597Y-156464757D02*
X71358026Y-156536185D01*
X71358026Y-156536185D02*
X71429454Y-156679042D01*
X71429454Y-156679042D02*
X71429454Y-156893328D01*
X71429454Y-156893328D02*
X71358026Y-157036185D01*
X71358026Y-157036185D02*
X71286597Y-157107614D01*
X71286597Y-157107614D02*
X71143740Y-157179042D01*
X71143740Y-157179042D02*
X70572311Y-157179042D01*
X72072311Y-157893328D02*
X72072311Y-156893328D01*
X72072311Y-156393328D02*
X72000883Y-156464757D01*
X72000883Y-156464757D02*
X72072311Y-156536185D01*
X72072311Y-156536185D02*
X72143740Y-156464757D01*
X72143740Y-156464757D02*
X72072311Y-156393328D01*
X72072311Y-156393328D02*
X72072311Y-156536185D01*
X73000883Y-157893328D02*
X72858026Y-157821900D01*
X72858026Y-157821900D02*
X72786597Y-157679042D01*
X72786597Y-157679042D02*
X72786597Y-156393328D01*
X73786597Y-157893328D02*
X73643740Y-157821900D01*
X73643740Y-157821900D02*
X73572311Y-157750471D01*
X73572311Y-157750471D02*
X73500883Y-157607614D01*
X73500883Y-157607614D02*
X73500883Y-157179042D01*
X73500883Y-157179042D02*
X73572311Y-157036185D01*
X73572311Y-157036185D02*
X73643740Y-156964757D01*
X73643740Y-156964757D02*
X73786597Y-156893328D01*
X73786597Y-156893328D02*
X74000883Y-156893328D01*
X74000883Y-156893328D02*
X74143740Y-156964757D01*
X74143740Y-156964757D02*
X74215169Y-157036185D01*
X74215169Y-157036185D02*
X74286597Y-157179042D01*
X74286597Y-157179042D02*
X74286597Y-157607614D01*
X74286597Y-157607614D02*
X74215169Y-157750471D01*
X74215169Y-157750471D02*
X74143740Y-157821900D01*
X74143740Y-157821900D02*
X74000883Y-157893328D01*
X74000883Y-157893328D02*
X73786597Y-157893328D01*
X74715169Y-156893328D02*
X75286597Y-156893328D01*
X74929454Y-156393328D02*
X74929454Y-157679042D01*
X74929454Y-157679042D02*
X75000883Y-157821900D01*
X75000883Y-157821900D02*
X75143740Y-157893328D01*
X75143740Y-157893328D02*
X75286597Y-157893328D01*
X75786597Y-157750471D02*
X75858026Y-157821900D01*
X75858026Y-157821900D02*
X75786597Y-157893328D01*
X75786597Y-157893328D02*
X75715169Y-157821900D01*
X75715169Y-157821900D02*
X75786597Y-157750471D01*
X75786597Y-157750471D02*
X75786597Y-157893328D01*
X76500883Y-157893328D02*
X76500883Y-156393328D01*
X76643741Y-157321900D02*
X77072312Y-157893328D01*
X77072312Y-156893328D02*
X76500883Y-157464757D01*
X77715169Y-157893328D02*
X77715169Y-156893328D01*
X77715169Y-156393328D02*
X77643741Y-156464757D01*
X77643741Y-156464757D02*
X77715169Y-156536185D01*
X77715169Y-156536185D02*
X77786598Y-156464757D01*
X77786598Y-156464757D02*
X77715169Y-156393328D01*
X77715169Y-156393328D02*
X77715169Y-156536185D01*
X79072313Y-157821900D02*
X78929455Y-157893328D01*
X78929455Y-157893328D02*
X78643741Y-157893328D01*
X78643741Y-157893328D02*
X78500884Y-157821900D01*
X78500884Y-157821900D02*
X78429455Y-157750471D01*
X78429455Y-157750471D02*
X78358027Y-157607614D01*
X78358027Y-157607614D02*
X78358027Y-157179042D01*
X78358027Y-157179042D02*
X78429455Y-157036185D01*
X78429455Y-157036185D02*
X78500884Y-156964757D01*
X78500884Y-156964757D02*
X78643741Y-156893328D01*
X78643741Y-156893328D02*
X78929455Y-156893328D01*
X78929455Y-156893328D02*
X79072313Y-156964757D01*
X80358027Y-157893328D02*
X80358027Y-157107614D01*
X80358027Y-157107614D02*
X80286598Y-156964757D01*
X80286598Y-156964757D02*
X80143741Y-156893328D01*
X80143741Y-156893328D02*
X79858027Y-156893328D01*
X79858027Y-156893328D02*
X79715169Y-156964757D01*
X80358027Y-157821900D02*
X80215169Y-157893328D01*
X80215169Y-157893328D02*
X79858027Y-157893328D01*
X79858027Y-157893328D02*
X79715169Y-157821900D01*
X79715169Y-157821900D02*
X79643741Y-157679042D01*
X79643741Y-157679042D02*
X79643741Y-157536185D01*
X79643741Y-157536185D02*
X79715169Y-157393328D01*
X79715169Y-157393328D02*
X79858027Y-157321900D01*
X79858027Y-157321900D02*
X80215169Y-157321900D01*
X80215169Y-157321900D02*
X80358027Y-157250471D01*
X81715170Y-157893328D02*
X81715170Y-156393328D01*
X81715170Y-157821900D02*
X81572312Y-157893328D01*
X81572312Y-157893328D02*
X81286598Y-157893328D01*
X81286598Y-157893328D02*
X81143741Y-157821900D01*
X81143741Y-157821900D02*
X81072312Y-157750471D01*
X81072312Y-157750471D02*
X81000884Y-157607614D01*
X81000884Y-157607614D02*
X81000884Y-157179042D01*
X81000884Y-157179042D02*
X81072312Y-157036185D01*
X81072312Y-157036185D02*
X81143741Y-156964757D01*
X81143741Y-156964757D02*
X81286598Y-156893328D01*
X81286598Y-156893328D02*
X81572312Y-156893328D01*
X81572312Y-156893328D02*
X81715170Y-156964757D01*
X82072313Y-158036185D02*
X83215170Y-158036185D01*
X83572312Y-156893328D02*
X83572312Y-158393328D01*
X83572312Y-156964757D02*
X83715170Y-156893328D01*
X83715170Y-156893328D02*
X84000884Y-156893328D01*
X84000884Y-156893328D02*
X84143741Y-156964757D01*
X84143741Y-156964757D02*
X84215170Y-157036185D01*
X84215170Y-157036185D02*
X84286598Y-157179042D01*
X84286598Y-157179042D02*
X84286598Y-157607614D01*
X84286598Y-157607614D02*
X84215170Y-157750471D01*
X84215170Y-157750471D02*
X84143741Y-157821900D01*
X84143741Y-157821900D02*
X84000884Y-157893328D01*
X84000884Y-157893328D02*
X83715170Y-157893328D01*
X83715170Y-157893328D02*
X83572312Y-157821900D01*
X85572313Y-157821900D02*
X85429455Y-157893328D01*
X85429455Y-157893328D02*
X85143741Y-157893328D01*
X85143741Y-157893328D02*
X85000884Y-157821900D01*
X85000884Y-157821900D02*
X84929455Y-157750471D01*
X84929455Y-157750471D02*
X84858027Y-157607614D01*
X84858027Y-157607614D02*
X84858027Y-157179042D01*
X84858027Y-157179042D02*
X84929455Y-157036185D01*
X84929455Y-157036185D02*
X85000884Y-156964757D01*
X85000884Y-156964757D02*
X85143741Y-156893328D01*
X85143741Y-156893328D02*
X85429455Y-156893328D01*
X85429455Y-156893328D02*
X85572313Y-156964757D01*
X86215169Y-157893328D02*
X86215169Y-156393328D01*
X86215169Y-156964757D02*
X86358027Y-156893328D01*
X86358027Y-156893328D02*
X86643741Y-156893328D01*
X86643741Y-156893328D02*
X86786598Y-156964757D01*
X86786598Y-156964757D02*
X86858027Y-157036185D01*
X86858027Y-157036185D02*
X86929455Y-157179042D01*
X86929455Y-157179042D02*
X86929455Y-157607614D01*
X86929455Y-157607614D02*
X86858027Y-157750471D01*
X86858027Y-157750471D02*
X86786598Y-157821900D01*
X86786598Y-157821900D02*
X86643741Y-157893328D01*
X86643741Y-157893328D02*
X86358027Y-157893328D01*
X86358027Y-157893328D02*
X86215169Y-157821900D01*
D10*
D11*
X60402200Y-153007200D02*
X168402200Y-153007200D01*
D10*
D11*
X61786598Y-155121900D02*
X62000884Y-155193328D01*
X62000884Y-155193328D02*
X62358026Y-155193328D01*
X62358026Y-155193328D02*
X62500884Y-155121900D01*
X62500884Y-155121900D02*
X62572312Y-155050471D01*
X62572312Y-155050471D02*
X62643741Y-154907614D01*
X62643741Y-154907614D02*
X62643741Y-154764757D01*
X62643741Y-154764757D02*
X62572312Y-154621900D01*
X62572312Y-154621900D02*
X62500884Y-154550471D01*
X62500884Y-154550471D02*
X62358026Y-154479042D01*
X62358026Y-154479042D02*
X62072312Y-154407614D01*
X62072312Y-154407614D02*
X61929455Y-154336185D01*
X61929455Y-154336185D02*
X61858026Y-154264757D01*
X61858026Y-154264757D02*
X61786598Y-154121900D01*
X61786598Y-154121900D02*
X61786598Y-153979042D01*
X61786598Y-153979042D02*
X61858026Y-153836185D01*
X61858026Y-153836185D02*
X61929455Y-153764757D01*
X61929455Y-153764757D02*
X62072312Y-153693328D01*
X62072312Y-153693328D02*
X62429455Y-153693328D01*
X62429455Y-153693328D02*
X62643741Y-153764757D01*
X63286597Y-155193328D02*
X63286597Y-153693328D01*
X63929455Y-155193328D02*
X63929455Y-154407614D01*
X63929455Y-154407614D02*
X63858026Y-154264757D01*
X63858026Y-154264757D02*
X63715169Y-154193328D01*
X63715169Y-154193328D02*
X63500883Y-154193328D01*
X63500883Y-154193328D02*
X63358026Y-154264757D01*
X63358026Y-154264757D02*
X63286597Y-154336185D01*
X65215169Y-155121900D02*
X65072312Y-155193328D01*
X65072312Y-155193328D02*
X64786598Y-155193328D01*
X64786598Y-155193328D02*
X64643740Y-155121900D01*
X64643740Y-155121900D02*
X64572312Y-154979042D01*
X64572312Y-154979042D02*
X64572312Y-154407614D01*
X64572312Y-154407614D02*
X64643740Y-154264757D01*
X64643740Y-154264757D02*
X64786598Y-154193328D01*
X64786598Y-154193328D02*
X65072312Y-154193328D01*
X65072312Y-154193328D02*
X65215169Y-154264757D01*
X65215169Y-154264757D02*
X65286598Y-154407614D01*
X65286598Y-154407614D02*
X65286598Y-154550471D01*
X65286598Y-154550471D02*
X64572312Y-154693328D01*
X66500883Y-155121900D02*
X66358026Y-155193328D01*
X66358026Y-155193328D02*
X66072312Y-155193328D01*
X66072312Y-155193328D02*
X65929454Y-155121900D01*
X65929454Y-155121900D02*
X65858026Y-154979042D01*
X65858026Y-154979042D02*
X65858026Y-154407614D01*
X65858026Y-154407614D02*
X65929454Y-154264757D01*
X65929454Y-154264757D02*
X66072312Y-154193328D01*
X66072312Y-154193328D02*
X66358026Y-154193328D01*
X66358026Y-154193328D02*
X66500883Y-154264757D01*
X66500883Y-154264757D02*
X66572312Y-154407614D01*
X66572312Y-154407614D02*
X66572312Y-154550471D01*
X66572312Y-154550471D02*
X65858026Y-154693328D01*
X67000883Y-154193328D02*
X67572311Y-154193328D01*
X67215168Y-153693328D02*
X67215168Y-154979042D01*
X67215168Y-154979042D02*
X67286597Y-155121900D01*
X67286597Y-155121900D02*
X67429454Y-155193328D01*
X67429454Y-155193328D02*
X67572311Y-155193328D01*
X68072311Y-155050471D02*
X68143740Y-155121900D01*
X68143740Y-155121900D02*
X68072311Y-155193328D01*
X68072311Y-155193328D02*
X68000883Y-155121900D01*
X68000883Y-155121900D02*
X68072311Y-155050471D01*
X68072311Y-155050471D02*
X68072311Y-155193328D01*
X68072311Y-154264757D02*
X68143740Y-154336185D01*
X68143740Y-154336185D02*
X68072311Y-154407614D01*
X68072311Y-154407614D02*
X68000883Y-154336185D01*
X68000883Y-154336185D02*
X68072311Y-154264757D01*
X68072311Y-154264757D02*
X68072311Y-154407614D01*
D10*
D12*
D10*
D11*
D10*
D11*
D10*
D11*
D10*
D11*
D10*
D11*
X80402200Y-163007200D02*
X80402200Y-166007200D01*
D10*
D11*
X144402200Y-163007200D02*
X144402200Y-169507200D01*
X-44445181Y-10476189D02*
X-44445181Y-9857142D01*
X-44445181Y-9857142D02*
X-44064229Y-10190475D01*
X-44064229Y-10190475D02*
X-44064229Y-10047618D01*
X-44064229Y-10047618D02*
X-44016610Y-9952380D01*
X-44016610Y-9952380D02*
X-43968991Y-9904761D01*
X-43968991Y-9904761D02*
X-43873753Y-9857142D01*
X-43873753Y-9857142D02*
X-43635658Y-9857142D01*
X-43635658Y-9857142D02*
X-43540420Y-9904761D01*
X-43540420Y-9904761D02*
X-43492800Y-9952380D01*
X-43492800Y-9952380D02*
X-43445181Y-10047618D01*
X-43445181Y-10047618D02*
X-43445181Y-10333332D01*
X-43445181Y-10333332D02*
X-43492800Y-10428570D01*
X-43492800Y-10428570D02*
X-43540420Y-10476189D01*
X-43540420Y-9428570D02*
X-43492800Y-9380951D01*
X-43492800Y-9380951D02*
X-43445181Y-9428570D01*
X-43445181Y-9428570D02*
X-43492800Y-9476189D01*
X-43492800Y-9476189D02*
X-43540420Y-9428570D01*
X-43540420Y-9428570D02*
X-43445181Y-9428570D01*
X-44445181Y-9047618D02*
X-44445181Y-8428571D01*
X-44445181Y-8428571D02*
X-44064229Y-8761904D01*
X-44064229Y-8761904D02*
X-44064229Y-8619047D01*
X-44064229Y-8619047D02*
X-44016610Y-8523809D01*
X-44016610Y-8523809D02*
X-43968991Y-8476190D01*
X-43968991Y-8476190D02*
X-43873753Y-8428571D01*
X-43873753Y-8428571D02*
X-43635658Y-8428571D01*
X-43635658Y-8428571D02*
X-43540420Y-8476190D01*
X-43540420Y-8476190D02*
X-43492800Y-8523809D01*
X-43492800Y-8523809D02*
X-43445181Y-8619047D01*
X-43445181Y-8619047D02*
X-43445181Y-8904761D01*
X-43445181Y-8904761D02*
X-43492800Y-8999999D01*
X-43492800Y-8999999D02*
X-43540420Y-9047618D01*
X-44445181Y-8142856D02*
X-43445181Y-7809523D01*
X-43445181Y-7809523D02*
X-44445181Y-7476190D01*
X-44445181Y-17490476D02*
X-44445181Y-17966666D01*
X-44445181Y-17966666D02*
X-43968991Y-18014285D01*
X-43968991Y-18014285D02*
X-44016610Y-17966666D01*
X-44016610Y-17966666D02*
X-44064229Y-17871428D01*
X-44064229Y-17871428D02*
X-44064229Y-17633333D01*
X-44064229Y-17633333D02*
X-44016610Y-17538095D01*
X-44016610Y-17538095D02*
X-43968991Y-17490476D01*
X-43968991Y-17490476D02*
X-43873753Y-17442857D01*
X-43873753Y-17442857D02*
X-43635658Y-17442857D01*
X-43635658Y-17442857D02*
X-43540420Y-17490476D01*
X-43540420Y-17490476D02*
X-43492800Y-17538095D01*
X-43492800Y-17538095D02*
X-43445181Y-17633333D01*
X-43445181Y-17633333D02*
X-43445181Y-17871428D01*
X-43445181Y-17871428D02*
X-43492800Y-17966666D01*
X-43492800Y-17966666D02*
X-43540420Y-18014285D01*
X-44445181Y-17157142D02*
X-43445181Y-16823809D01*
X-43445181Y-16823809D02*
X-44445181Y-16490476D01*
X-33545181Y-10716666D02*
X-34021372Y-11049999D01*
X-33545181Y-11288094D02*
X-34545181Y-11288094D01*
X-34545181Y-11288094D02*
X-34545181Y-10907142D01*
X-34545181Y-10907142D02*
X-34497562Y-10811904D01*
X-34497562Y-10811904D02*
X-34449943Y-10764285D01*
X-34449943Y-10764285D02*
X-34354705Y-10716666D01*
X-34354705Y-10716666D02*
X-34211848Y-10716666D01*
X-34211848Y-10716666D02*
X-34116610Y-10764285D01*
X-34116610Y-10764285D02*
X-34068991Y-10811904D01*
X-34068991Y-10811904D02*
X-34021372Y-10907142D01*
X-34021372Y-10907142D02*
X-34021372Y-11288094D01*
X-34449943Y-10335713D02*
X-34497562Y-10288094D01*
X-34497562Y-10288094D02*
X-34545181Y-10192856D01*
X-34545181Y-10192856D02*
X-34545181Y-9954761D01*
X-34545181Y-9954761D02*
X-34497562Y-9859523D01*
X-34497562Y-9859523D02*
X-34449943Y-9811904D01*
X-34449943Y-9811904D02*
X-34354705Y-9764285D01*
X-34354705Y-9764285D02*
X-34259467Y-9764285D01*
X-34259467Y-9764285D02*
X-34116610Y-9811904D01*
X-34116610Y-9811904D02*
X-33545181Y-10383332D01*
X-33545181Y-10383332D02*
X-33545181Y-9764285D01*
X-22051905Y-14624819D02*
X-22051905Y-15434342D01*
X-22051905Y-15434342D02*
X-22004286Y-15529580D01*
X-22004286Y-15529580D02*
X-21956667Y-15577200D01*
X-21956667Y-15577200D02*
X-21861429Y-15624819D01*
X-21861429Y-15624819D02*
X-21670953Y-15624819D01*
X-21670953Y-15624819D02*
X-21575715Y-15577200D01*
X-21575715Y-15577200D02*
X-21528096Y-15529580D01*
X-21528096Y-15529580D02*
X-21480477Y-15434342D01*
X-21480477Y-15434342D02*
X-21480477Y-14624819D01*
X-20480477Y-15624819D02*
X-21051905Y-15624819D01*
X-20766191Y-15624819D02*
X-20766191Y-14624819D01*
X-20766191Y-14624819D02*
X-20861429Y-14767676D01*
X-20861429Y-14767676D02*
X-20956667Y-14862914D01*
X-20956667Y-14862914D02*
X-21051905Y-14910533D01*
X-22051905Y-1624819D02*
X-22051905Y-2434342D01*
X-22051905Y-2434342D02*
X-22004286Y-2529580D01*
X-22004286Y-2529580D02*
X-21956667Y-2577200D01*
X-21956667Y-2577200D02*
X-21861429Y-2624819D01*
X-21861429Y-2624819D02*
X-21670953Y-2624819D01*
X-21670953Y-2624819D02*
X-21575715Y-2577200D01*
X-21575715Y-2577200D02*
X-21528096Y-2529580D01*
X-21528096Y-2529580D02*
X-21480477Y-2434342D01*
X-21480477Y-2434342D02*
X-21480477Y-1624819D01*
X-21051905Y-1720057D02*
X-21004286Y-1672438D01*
X-21004286Y-1672438D02*
X-20909048Y-1624819D01*
X-20909048Y-1624819D02*
X-20670953Y-1624819D01*
X-20670953Y-1624819D02*
X-20575715Y-1672438D01*
X-20575715Y-1672438D02*
X-20528096Y-1720057D01*
X-20528096Y-1720057D02*
X-20480477Y-1815295D01*
X-20480477Y-1815295D02*
X-20480477Y-1910533D01*
X-20480477Y-1910533D02*
X-20528096Y-2053390D01*
X-20528096Y-2053390D02*
X-21099524Y-2624819D01*
X-21099524Y-2624819D02*
X-20480477Y-2624819D01*
X-13158095Y-4779819D02*
X-13158095Y-3779819D01*
X-13158095Y-3779819D02*
X-12920000Y-3779819D01*
X-12920000Y-3779819D02*
X-12777143Y-3827438D01*
X-12777143Y-3827438D02*
X-12681905Y-3922676D01*
X-12681905Y-3922676D02*
X-12634286Y-4017914D01*
X-12634286Y-4017914D02*
X-12586667Y-4208390D01*
X-12586667Y-4208390D02*
X-12586667Y-4351247D01*
X-12586667Y-4351247D02*
X-12634286Y-4541723D01*
X-12634286Y-4541723D02*
X-12681905Y-4636961D01*
X-12681905Y-4636961D02*
X-12777143Y-4732200D01*
X-12777143Y-4732200D02*
X-12920000Y-4779819D01*
X-12920000Y-4779819D02*
X-13158095Y-4779819D01*
X-12205714Y-3875057D02*
X-12158095Y-3827438D01*
X-12158095Y-3827438D02*
X-12062857Y-3779819D01*
X-12062857Y-3779819D02*
X-11824762Y-3779819D01*
X-11824762Y-3779819D02*
X-11729524Y-3827438D01*
X-11729524Y-3827438D02*
X-11681905Y-3875057D01*
X-11681905Y-3875057D02*
X-11634286Y-3970295D01*
X-11634286Y-3970295D02*
X-11634286Y-4065533D01*
X-11634286Y-4065533D02*
X-11681905Y-4208390D01*
X-11681905Y-4208390D02*
X-12253333Y-4779819D01*
X-12253333Y-4779819D02*
X-11634286Y-4779819D01*
X-16361905Y-1954819D02*
X-16361905Y-954819D01*
X-15790477Y-1954819D02*
X-16219048Y-1383390D01*
X-15790477Y-954819D02*
X-16361905Y-1526247D01*
X-53445181Y-14261904D02*
X-52635658Y-14261904D01*
X-52635658Y-14261904D02*
X-52540420Y-14214285D01*
X-52540420Y-14214285D02*
X-52492800Y-14166666D01*
X-52492800Y-14166666D02*
X-52445181Y-14071428D01*
X-52445181Y-14071428D02*
X-52445181Y-13880952D01*
X-52445181Y-13880952D02*
X-52492800Y-13785714D01*
X-52492800Y-13785714D02*
X-52540420Y-13738095D01*
X-52540420Y-13738095D02*
X-52635658Y-13690476D01*
X-52635658Y-13690476D02*
X-53445181Y-13690476D01*
X-53445181Y-13309523D02*
X-53445181Y-12690476D01*
X-53445181Y-12690476D02*
X-53064229Y-13023809D01*
X-53064229Y-13023809D02*
X-53064229Y-12880952D01*
X-53064229Y-12880952D02*
X-53016610Y-12785714D01*
X-53016610Y-12785714D02*
X-52968991Y-12738095D01*
X-52968991Y-12738095D02*
X-52873753Y-12690476D01*
X-52873753Y-12690476D02*
X-52635658Y-12690476D01*
X-52635658Y-12690476D02*
X-52540420Y-12738095D01*
X-52540420Y-12738095D02*
X-52492800Y-12785714D01*
X-52492800Y-12785714D02*
X-52445181Y-12880952D01*
X-52445181Y-12880952D02*
X-52445181Y-13166666D01*
X-52445181Y-13166666D02*
X-52492800Y-13261904D01*
X-52492800Y-13261904D02*
X-52540420Y-13309523D01*
X-36740420Y-19166666D02*
X-36692800Y-19214285D01*
X-36692800Y-19214285D02*
X-36645181Y-19357142D01*
X-36645181Y-19357142D02*
X-36645181Y-19452380D01*
X-36645181Y-19452380D02*
X-36692800Y-19595237D01*
X-36692800Y-19595237D02*
X-36788039Y-19690475D01*
X-36788039Y-19690475D02*
X-36883277Y-19738094D01*
X-36883277Y-19738094D02*
X-37073753Y-19785713D01*
X-37073753Y-19785713D02*
X-37216610Y-19785713D01*
X-37216610Y-19785713D02*
X-37407086Y-19738094D01*
X-37407086Y-19738094D02*
X-37502324Y-19690475D01*
X-37502324Y-19690475D02*
X-37597562Y-19595237D01*
X-37597562Y-19595237D02*
X-37645181Y-19452380D01*
X-37645181Y-19452380D02*
X-37645181Y-19357142D01*
X-37645181Y-19357142D02*
X-37597562Y-19214285D01*
X-37597562Y-19214285D02*
X-37549943Y-19166666D01*
X-37549943Y-18785713D02*
X-37597562Y-18738094D01*
X-37597562Y-18738094D02*
X-37645181Y-18642856D01*
X-37645181Y-18642856D02*
X-37645181Y-18404761D01*
X-37645181Y-18404761D02*
X-37597562Y-18309523D01*
X-37597562Y-18309523D02*
X-37549943Y-18261904D01*
X-37549943Y-18261904D02*
X-37454705Y-18214285D01*
X-37454705Y-18214285D02*
X-37359467Y-18214285D01*
X-37359467Y-18214285D02*
X-37216610Y-18261904D01*
X-37216610Y-18261904D02*
X-36645181Y-18833332D01*
X-36645181Y-18833332D02*
X-36645181Y-18214285D01*
X-11703334Y-19211009D02*
X-12036667Y-19211009D01*
X-12036667Y-19734819D02*
X-12036667Y-18734819D01*
X-12036667Y-18734819D02*
X-11560477Y-18734819D01*
X-10655715Y-19734819D02*
X-11227143Y-19734819D01*
X-10941429Y-19734819D02*
X-10941429Y-18734819D01*
X-10941429Y-18734819D02*
X-11036667Y-18877676D01*
X-11036667Y-18877676D02*
X-11131905Y-18972914D01*
X-11131905Y-18972914D02*
X-11227143Y-19020533D01*
X-13113095Y-23229819D02*
X-13113095Y-22229819D01*
X-13113095Y-22229819D02*
X-12875000Y-22229819D01*
X-12875000Y-22229819D02*
X-12732143Y-22277438D01*
X-12732143Y-22277438D02*
X-12636905Y-22372676D01*
X-12636905Y-22372676D02*
X-12589286Y-22467914D01*
X-12589286Y-22467914D02*
X-12541667Y-22658390D01*
X-12541667Y-22658390D02*
X-12541667Y-22801247D01*
X-12541667Y-22801247D02*
X-12589286Y-22991723D01*
X-12589286Y-22991723D02*
X-12636905Y-23086961D01*
X-12636905Y-23086961D02*
X-12732143Y-23182200D01*
X-12732143Y-23182200D02*
X-12875000Y-23229819D01*
X-12875000Y-23229819D02*
X-13113095Y-23229819D01*
X-11589286Y-23229819D02*
X-12160714Y-23229819D01*
X-11875000Y-23229819D02*
X-11875000Y-22229819D01*
X-11875000Y-22229819D02*
X-11970238Y-22372676D01*
X-11970238Y-22372676D02*
X-12065476Y-22467914D01*
X-12065476Y-22467914D02*
X-12160714Y-22515533D01*
X-8861905Y-23954819D02*
X-8861905Y-22954819D01*
X-8290477Y-23954819D02*
X-8719048Y-23383390D01*
X-8290477Y-22954819D02*
X-8861905Y-23526247D01*
X-36290420Y-9666666D02*
X-36242800Y-9714285D01*
X-36242800Y-9714285D02*
X-36195181Y-9857142D01*
X-36195181Y-9857142D02*
X-36195181Y-9952380D01*
X-36195181Y-9952380D02*
X-36242800Y-10095237D01*
X-36242800Y-10095237D02*
X-36338039Y-10190475D01*
X-36338039Y-10190475D02*
X-36433277Y-10238094D01*
X-36433277Y-10238094D02*
X-36623753Y-10285713D01*
X-36623753Y-10285713D02*
X-36766610Y-10285713D01*
X-36766610Y-10285713D02*
X-36957086Y-10238094D01*
X-36957086Y-10238094D02*
X-37052324Y-10190475D01*
X-37052324Y-10190475D02*
X-37147562Y-10095237D01*
X-37147562Y-10095237D02*
X-37195181Y-9952380D01*
X-37195181Y-9952380D02*
X-37195181Y-9857142D01*
X-37195181Y-9857142D02*
X-37147562Y-9714285D01*
X-37147562Y-9714285D02*
X-37099943Y-9666666D01*
X-36195181Y-8714285D02*
X-36195181Y-9285713D01*
X-36195181Y-8999999D02*
X-37195181Y-8999999D01*
X-37195181Y-8999999D02*
X-37052324Y-9095237D01*
X-37052324Y-9095237D02*
X-36957086Y-9190475D01*
X-36957086Y-9190475D02*
X-36909467Y-9285713D01*
X-30495181Y-17616666D02*
X-30971372Y-17949999D01*
X-30495181Y-18188094D02*
X-31495181Y-18188094D01*
X-31495181Y-18188094D02*
X-31495181Y-17807142D01*
X-31495181Y-17807142D02*
X-31447562Y-17711904D01*
X-31447562Y-17711904D02*
X-31399943Y-17664285D01*
X-31399943Y-17664285D02*
X-31304705Y-17616666D01*
X-31304705Y-17616666D02*
X-31161848Y-17616666D01*
X-31161848Y-17616666D02*
X-31066610Y-17664285D01*
X-31066610Y-17664285D02*
X-31018991Y-17711904D01*
X-31018991Y-17711904D02*
X-30971372Y-17807142D01*
X-30971372Y-17807142D02*
X-30971372Y-18188094D01*
X-30495181Y-16664285D02*
X-30495181Y-17235713D01*
X-30495181Y-16949999D02*
X-31495181Y-16949999D01*
X-31495181Y-16949999D02*
X-31352324Y-17045237D01*
X-31352324Y-17045237D02*
X-31257086Y-17140475D01*
X-31257086Y-17140475D02*
X-31209467Y-17235713D01*
D14*
X-33220000Y-7285000D02*
X-33220000Y-13825000D01*
X-33220000Y-13825000D02*
X-30480000Y-13825000D01*
X-31850000Y-6515000D02*
X-31850000Y-7285000D01*
X-31850000Y-14595000D02*
X-31850000Y-13825000D01*
X-30480000Y-7285000D02*
X-33220000Y-7285000D01*
X-30480000Y-13825000D02*
X-30480000Y-7285000D01*
X-23940000Y-16170000D02*
X-23940000Y-23910000D01*
X-23940000Y-23910000D02*
X-18640000Y-23910000D01*
X-22290000Y-16170000D02*
X-23940000Y-16170000D01*
X-18640000Y-16170000D02*
X-20290000Y-16170000D01*
X-18640000Y-23910000D02*
X-18640000Y-16170000D01*
X-20290000Y-16170000D02*
G75*
G02*
X-22290000Y-16170000I-1000000J0D01*
G01*
X-23940000Y-3170000D02*
X-23940000Y-10910000D01*
X-23940000Y-10910000D02*
X-18640000Y-10910000D01*
X-22290000Y-3170000D02*
X-23940000Y-3170000D01*
X-18640000Y-3170000D02*
X-20290000Y-3170000D01*
X-18640000Y-10910000D02*
X-18640000Y-3170000D01*
X-20290000Y-3170000D02*
G75*
G02*
X-22290000Y-3170000I-1000000J0D01*
G01*
X-16460000Y-2352000D02*
X-14540000Y-2352000D01*
X-14540000Y-1232000D02*
X-14540000Y-3472000D01*
X-14540000Y-3472000D02*
X-10300000Y-3472000D01*
X-13940000Y-1232000D02*
X-13940000Y-3472000D01*
X-13820000Y-1232000D02*
X-13820000Y-3472000D01*
X-13700000Y-1232000D02*
X-13700000Y-3472000D01*
X-10300000Y-1232000D02*
X-14540000Y-1232000D01*
X-10300000Y-3472000D02*
X-10300000Y-1232000D01*
X-8380000Y-2352000D02*
X-10300000Y-2352000D01*
D11*
X-51900000Y-2320000D02*
X-51900000Y-10180000D01*
X-51900000Y-2320000D02*
X-45900000Y-2320000D01*
X-51900000Y-10180000D02*
X-50900000Y-10180000D01*
X-51900000Y-18400000D02*
X-51900000Y-26829999D01*
X-51900000Y-26830000D02*
X-18820000Y-26830000D01*
X-50900000Y-10180000D02*
X-50900000Y-18400000D01*
X-50900000Y-18400000D02*
X-51900000Y-18400000D01*
X-44900000Y-170000D02*
X-44900000Y-170000D01*
X-44900000Y-1330000D02*
X-44900000Y-170000D01*
X-18820000Y-170000D02*
X-44900000Y-170000D01*
X-16820000Y-24830000D02*
X-16820000Y-2170000D01*
X-44900000Y-1320000D02*
G75*
G02*
X-45900000Y-2320000I-999999J-1D01*
G01*
X-18820000Y-170000D02*
G75*
G02*
X-16820000Y-2170000I0J-2000000D01*
G01*
X-16820000Y-24830000D02*
G75*
G02*
X-18820000Y-26830000I-2000000J0D01*
G01*
D14*
X-41970000Y-15380000D02*
X-41970000Y-22620000D01*
X-38230000Y-15380000D02*
X-41970000Y-15380000D01*
X-38230000Y-15380000D02*
X-38230000Y-22620000D01*
X-38230000Y-22620000D02*
X-41970000Y-22620000D01*
X-8560000Y-9685000D02*
X-8420000Y-9565000D01*
X-8420000Y-9565000D02*
X-8260000Y-9475000D01*
X-8260000Y-9475000D02*
X-8010000Y-9425000D01*
X-8010000Y-9425000D02*
X-7750000Y-9455000D01*
X-7750000Y-9455000D02*
X-7490000Y-9605000D01*
X-7490000Y-9605000D02*
X-7320000Y-9825000D01*
X-7360000Y-10585000D02*
X-7510000Y-10715000D01*
X-7320000Y-9825000D02*
X-7240000Y-10115000D01*
X-7280000Y-10405000D02*
X-7360000Y-10585000D01*
X-7240000Y-10115000D02*
X-7280000Y-10405000D01*
X-6590000Y-13535000D02*
G75*
G02*
X-16090000Y-13535000I-4750000J0D01*
G01*
X-16090000Y-13535000D02*
G75*
G02*
X-6590000Y-13535000I4750000J0D01*
G01*
X-16420000Y-24650000D02*
X-14500000Y-24650000D01*
X-14500000Y-23530000D02*
X-14500000Y-25770000D01*
X-14500000Y-25770000D02*
X-10260000Y-25770000D01*
X-11100000Y-25770000D02*
X-11100000Y-23530000D01*
X-10980000Y-25770000D02*
X-10980000Y-23530000D01*
X-10860000Y-25770000D02*
X-10860000Y-23530000D01*
X-10260000Y-23530000D02*
X-14500000Y-23530000D01*
X-10260000Y-25770000D02*
X-10260000Y-23530000D01*
X-8340000Y-24650000D02*
X-10260000Y-24650000D01*
X-42680000Y-9460000D02*
X-41140000Y-9460000D01*
X-42680000Y-9500000D02*
X-41140000Y-9500000D01*
X-42679000Y-9420000D02*
X-41140000Y-9420000D01*
X-42678000Y-9380000D02*
X-41140000Y-9380000D01*
X-42676000Y-9340000D02*
X-41140000Y-9340000D01*
X-42673000Y-9300000D02*
X-41140000Y-9300000D01*
X-42669000Y-9260000D02*
X-41140000Y-9260000D01*
X-42665000Y-9220000D02*
X-41140000Y-9220000D01*
X-42661000Y-9180000D02*
X-41140000Y-9180000D01*
X-42656000Y-9140000D02*
X-41140000Y-9140000D01*
X-42650000Y-9100000D02*
X-41140000Y-9100000D01*
X-42643000Y-9060000D02*
X-41140000Y-9060000D01*
X-42636000Y-9020000D02*
X-41140000Y-9020000D01*
X-42628000Y-8980000D02*
X-41140000Y-8980000D01*
X-42620000Y-8940000D02*
X-41140000Y-8940000D01*
X-42611000Y-8900000D02*
X-41140000Y-8900000D01*
X-42601000Y-8860000D02*
X-41140000Y-8860000D01*
X-42591000Y-8820000D02*
X-41140000Y-8820000D01*
X-42580000Y-8779000D02*
X-41140000Y-8779000D01*
X-42568000Y-8739000D02*
X-41140000Y-8739000D01*
X-42555000Y-8699000D02*
X-41140000Y-8699000D01*
X-42542000Y-8659000D02*
X-41140000Y-8659000D01*
X-42528000Y-8619000D02*
X-41140000Y-8619000D01*
X-42514000Y-8579000D02*
X-41140000Y-8579000D01*
X-42498000Y-8539000D02*
X-41140000Y-8539000D01*
X-42482000Y-8499000D02*
X-41140000Y-8499000D01*
X-42465000Y-8459000D02*
X-41140000Y-8459000D01*
X-42448000Y-8419000D02*
X-41140000Y-8419000D01*
X-42429000Y-8379000D02*
X-41140000Y-8379000D01*
X-42410000Y-8339000D02*
X-41140000Y-8339000D01*
X-42390000Y-8299000D02*
X-41140000Y-8299000D01*
X-42368000Y-8259000D02*
X-41140000Y-8259000D01*
X-42347000Y-8219000D02*
X-41140000Y-8219000D01*
X-42324000Y-8179000D02*
X-41140000Y-8179000D01*
X-42300000Y-8139000D02*
X-41140000Y-8139000D01*
X-42275000Y-8099000D02*
X-41140000Y-8099000D01*
X-42249000Y-8059000D02*
X-41140000Y-8059000D01*
X-42222000Y-8019000D02*
X-41140000Y-8019000D01*
X-42195000Y-7979000D02*
X-41140000Y-7979000D01*
X-42165000Y-7939000D02*
X-41140000Y-7939000D01*
X-42135000Y-7899000D02*
X-41140000Y-7899000D01*
X-42104000Y-7859000D02*
X-41140000Y-7859000D01*
X-42071000Y-7819000D02*
X-41140000Y-7819000D01*
X-42037000Y-7779000D02*
X-41140000Y-7779000D01*
X-42001000Y-7739000D02*
X-41140000Y-7739000D01*
X-41964000Y-7699000D02*
X-41140000Y-7699000D01*
X-41926000Y-7659000D02*
X-41140000Y-7659000D01*
X-41885000Y-7619000D02*
X-41140000Y-7619000D01*
X-41843000Y-7579000D02*
X-41140000Y-7579000D01*
X-41825000Y-12054775D02*
X-41325000Y-12054775D01*
X-41799000Y-7539000D02*
X-41140000Y-7539000D01*
X-41753000Y-7499000D02*
X-41140000Y-7499000D01*
X-41705000Y-7459000D02*
X-38495000Y-7459000D01*
X-41654000Y-7419000D02*
X-38546000Y-7419000D01*
X-41600000Y-7379000D02*
X-38600000Y-7379000D01*
X-41575000Y-12304775D02*
X-41575000Y-11804775D01*
X-41543000Y-7339000D02*
X-38657000Y-7339000D01*
X-41483000Y-7299000D02*
X-38717000Y-7299000D01*
X-41419000Y-7259000D02*
X-38781000Y-7259000D01*
X-41351000Y-7219000D02*
X-38849000Y-7219000D01*
X-41278000Y-7179000D02*
X-38922000Y-7179000D01*
X-41198000Y-7139000D02*
X-39002000Y-7139000D01*
X-41111000Y-7099000D02*
X-39089000Y-7099000D01*
X-41015000Y-7059000D02*
X-39185000Y-7059000D01*
X-40905000Y-7019000D02*
X-39295000Y-7019000D01*
X-40777000Y-6979000D02*
X-39423000Y-6979000D01*
X-40618000Y-6939000D02*
X-39582000Y-6939000D01*
X-40384000Y-6899000D02*
X-39816000Y-6899000D01*
X-39060000Y-7499000D02*
X-38447000Y-7499000D01*
X-39060000Y-7539000D02*
X-38401000Y-7539000D01*
X-39060000Y-7579000D02*
X-38357000Y-7579000D01*
X-39060000Y-7619000D02*
X-38315000Y-7619000D01*
X-39060000Y-7659000D02*
X-38274000Y-7659000D01*
X-39060000Y-7699000D02*
X-38236000Y-7699000D01*
X-39060000Y-7739000D02*
X-38199000Y-7739000D01*
X-39060000Y-7779000D02*
X-38163000Y-7779000D01*
X-39060000Y-7819000D02*
X-38129000Y-7819000D01*
X-39060000Y-7859000D02*
X-38096000Y-7859000D01*
X-39060000Y-7899000D02*
X-38065000Y-7899000D01*
X-39060000Y-7939000D02*
X-38035000Y-7939000D01*
X-39060000Y-7979000D02*
X-38005000Y-7979000D01*
X-39060000Y-8019000D02*
X-37978000Y-8019000D01*
X-39060000Y-8059000D02*
X-37951000Y-8059000D01*
X-39060000Y-8099000D02*
X-37925000Y-8099000D01*
X-39060000Y-8139000D02*
X-37900000Y-8139000D01*
X-39060000Y-8179000D02*
X-37876000Y-8179000D01*
X-39060000Y-8219000D02*
X-37853000Y-8219000D01*
X-39060000Y-8259000D02*
X-37832000Y-8259000D01*
X-39060000Y-8299000D02*
X-37810000Y-8299000D01*
X-39060000Y-8339000D02*
X-37790000Y-8339000D01*
X-39060000Y-8379000D02*
X-37771000Y-8379000D01*
X-39060000Y-8419000D02*
X-37752000Y-8419000D01*
X-39060000Y-8459000D02*
X-37735000Y-8459000D01*
X-39060000Y-8499000D02*
X-37718000Y-8499000D01*
X-39060000Y-8539000D02*
X-37702000Y-8539000D01*
X-39060000Y-8579000D02*
X-37686000Y-8579000D01*
X-39060000Y-8619000D02*
X-37672000Y-8619000D01*
X-39060000Y-8659000D02*
X-37658000Y-8659000D01*
X-39060000Y-8699000D02*
X-37645000Y-8699000D01*
X-39060000Y-8739000D02*
X-37632000Y-8739000D01*
X-39060000Y-8779000D02*
X-37620000Y-8779000D01*
X-39060000Y-8820000D02*
X-37609000Y-8820000D01*
X-39060000Y-8860000D02*
X-37599000Y-8860000D01*
X-39060000Y-8900000D02*
X-37589000Y-8900000D01*
X-39060000Y-8940000D02*
X-37580000Y-8940000D01*
X-39060000Y-8980000D02*
X-37572000Y-8980000D01*
X-39060000Y-9020000D02*
X-37564000Y-9020000D01*
X-39060000Y-9060000D02*
X-37557000Y-9060000D01*
X-39060000Y-9100000D02*
X-37550000Y-9100000D01*
X-39060000Y-9140000D02*
X-37544000Y-9140000D01*
X-39060000Y-9180000D02*
X-37539000Y-9180000D01*
X-39060000Y-9220000D02*
X-37535000Y-9220000D01*
X-39060000Y-9260000D02*
X-37531000Y-9260000D01*
X-39060000Y-9300000D02*
X-37527000Y-9300000D01*
X-39060000Y-9340000D02*
X-37524000Y-9340000D01*
X-39060000Y-9380000D02*
X-37522000Y-9380000D01*
X-39060000Y-9420000D02*
X-37521000Y-9420000D01*
X-39060000Y-9460000D02*
X-37520000Y-9460000D01*
X-39060000Y-9500000D02*
X-37520000Y-9500000D01*
X-37480000Y-9500000D02*
G75*
G02*
X-42720000Y-9500000I-2620000J0D01*
G01*
X-42720000Y-9500000D02*
G75*
G02*
X-37480000Y-9500000I2620000J0D01*
G01*
X-44975000Y-10750000D02*
X-43025000Y-10750000D01*
X-44975000Y-16250000D02*
X-44975000Y-10750000D01*
X-43025000Y-10750000D02*
X-43025000Y-16250000D01*
X-43025000Y-16250000D02*
X-44975000Y-16250000D01*
X-42775000Y-14900000D02*
X-42475000Y-15200000D01*
X-42475000Y-14600000D02*
X-42775000Y-14900000D01*
X-42475000Y-15200000D02*
X-42475000Y-14600000D01*
X-30195000Y-14185000D02*
X-30195000Y-20725000D01*
X-30195000Y-20725000D02*
X-27455000Y-20725000D01*
X-28825000Y-13415000D02*
X-28825000Y-14185000D01*
X-28825000Y-21495000D02*
X-28825000Y-20725000D01*
X-27455000Y-14185000D02*
X-30195000Y-14185000D01*
X-27455000Y-20725000D02*
X-27455000Y-14185000D01*
%LPC*%
D15*
X-31850000Y-5475000D03*
D16*
X-31850000Y-15635000D03*
D17*
X-25100000Y-17500000D03*
D16*
X-25100000Y-20040000D03*
X-25100000Y-22580000D03*
X-17480000Y-22580000D03*
X-17480000Y-17500000D03*
D17*
X-25100000Y-4500000D03*
D16*
X-25100000Y-7040000D03*
X-25100000Y-9580000D03*
X-17480000Y-9580000D03*
X-17480000Y-4500000D03*
D17*
X-17500000Y-2352000D03*
D16*
X-7340000Y-2352000D03*
D18*
X-24710000Y-2070000D03*
X-27250000Y-2070000D03*
X-29790000Y-2070000D03*
X-32330000Y-2070000D03*
X-34870000Y-2070000D03*
X-37410000Y-2070000D03*
X-39950000Y-2070000D03*
X-42490000Y-2070000D03*
X-42490000Y-24930000D03*
X-39950000Y-24930000D03*
X-37410000Y-24930000D03*
X-34870000Y-24930000D03*
X-32330000Y-24930000D03*
X-29790000Y-24930000D03*
X-27250000Y-24930000D03*
X-24710000Y-24930000D03*
D15*
X-40100000Y-16500000D03*
X-40100000Y-17750000D03*
X-40100000Y-20250000D03*
X-40100000Y-21500000D03*
D19*
X-11350000Y-16075000D03*
X-11340000Y-10995000D03*
D17*
X-7300000Y-24650000D03*
D16*
X-17460000Y-24650000D03*
D17*
X-40100000Y-10500000D03*
D15*
X-40100000Y-8500000D03*
D20*
X-43975000Y-14700000D03*
X-43975000Y-12300000D03*
D21*
X-43975000Y-15500000D03*
D22*
X-43975000Y-11500000D03*
D15*
X-28825000Y-12375000D03*
D16*
X-28825000Y-22535000D03*
D23*
X-5600000Y-8450000D03*
D24*
X-5600000Y-13530000D03*
X-5600000Y-18610000D03*
D25*
X-13975000Y-5900000D03*
D26*
X-13975000Y-21100000D03*
X-41975000Y-5900000D03*
X-41975000Y-13500000D03*
%LPD*%
M02*
