G04 #@! TF.GenerationSoftware,KiCad,Pcbnew,8.0.0*
G04 #@! TF.CreationDate,2024-02-27T22:34:17+01:00*
G04 #@! TF.ProjectId,ESPilot,45535069-6c6f-4742-9e6b-696361645f70,rev?*
G04 #@! TF.SameCoordinates,PX6f32cc0PY1b2e020*
G04 #@! TF.FileFunction,Copper,L2,Bot*
G04 #@! TF.FilePolarity,Positive*
%FSLAX46Y46*%
G04 Gerber Fmt 4.6, Leading zero omitted, Abs format (unit mm)*
G04 Created by KiCad (PCBNEW 8.0.0) date 2024-02-27 22:34:17*
%MOMM*%
%LPD*%
G01*
G04 APERTURE LIST*
%ADD10C,0.100000*%
%ADD11C,0.150000*%
%ADD12C,0.300000*%
%ADD13C,0.400000*%
G04 #@! TA.AperFunction,ComponentPad*
%ADD14C,1.600000*%
G04 #@! TD*
G04 #@! TA.AperFunction,ComponentPad*
%ADD15O,1.600000X1.600000*%
G04 #@! TD*
G04 #@! TA.AperFunction,ComponentPad*
%ADD16R,1.600000X1.600000*%
G04 #@! TD*
G04 #@! TA.AperFunction,ComponentPad*
%ADD17C,1.800000*%
G04 #@! TD*
G04 #@! TA.AperFunction,ComponentPad*
%ADD18C,2.000000*%
G04 #@! TD*
G04 #@! TA.AperFunction,ComponentPad*
%ADD19R,3.000000X3.000000*%
G04 #@! TD*
G04 #@! TA.AperFunction,ComponentPad*
%ADD20C,3.000000*%
G04 #@! TD*
G04 #@! TA.AperFunction,ComponentPad*
%ADD21R,2.300000X2.000000*%
G04 #@! TD*
G04 #@! TA.AperFunction,ComponentPad*
%ADD22C,2.300000*%
G04 #@! TD*
G04 APERTURE END LIST*
D10*
D11*
X60402200Y-137507200D02*
X168402200Y-137507200D01*
X168402200Y-169507200D01*
X60402200Y-169507200D01*
X60402200Y-137507200D01*
D10*
D11*
X-106600000Y18500000D02*
X170402200Y18500000D01*
X170402200Y-171507200D01*
X-106600000Y-171507200D01*
X-106600000Y18500000D01*
D10*
D11*
X-104600000Y16500000D02*
X168402200Y16500000D01*
X168402200Y-169507200D01*
X-104600000Y-169507200D01*
X-104600000Y16500000D01*
D10*
D11*
X-56600000Y16500000D02*
X-56600000Y18500000D01*
D10*
D11*
X-6600000Y16500000D02*
X-6600000Y18500000D01*
D10*
D11*
X43400000Y16500000D02*
X43400000Y18500000D01*
D10*
D11*
X93400000Y16500000D02*
X93400000Y18500000D01*
D10*
D11*
X143400000Y16500000D02*
X143400000Y18500000D01*
D10*
D11*
X-80510840Y16906396D02*
X-81253697Y16906396D01*
X-80882269Y16906396D02*
X-80882269Y18206396D01*
X-80882269Y18206396D02*
X-81006078Y18020681D01*
X-81006078Y18020681D02*
X-81129888Y17896872D01*
X-81129888Y17896872D02*
X-81253697Y17834967D01*
D10*
D11*
X-31253697Y18082586D02*
X-31191793Y18144491D01*
X-31191793Y18144491D02*
X-31067983Y18206396D01*
X-31067983Y18206396D02*
X-30758459Y18206396D01*
X-30758459Y18206396D02*
X-30634650Y18144491D01*
X-30634650Y18144491D02*
X-30572745Y18082586D01*
X-30572745Y18082586D02*
X-30510840Y17958777D01*
X-30510840Y17958777D02*
X-30510840Y17834967D01*
X-30510840Y17834967D02*
X-30572745Y17649253D01*
X-30572745Y17649253D02*
X-31315602Y16906396D01*
X-31315602Y16906396D02*
X-30510840Y16906396D01*
D10*
D11*
X18684398Y18206396D02*
X19489160Y18206396D01*
X19489160Y18206396D02*
X19055826Y17711158D01*
X19055826Y17711158D02*
X19241541Y17711158D01*
X19241541Y17711158D02*
X19365350Y17649253D01*
X19365350Y17649253D02*
X19427255Y17587348D01*
X19427255Y17587348D02*
X19489160Y17463539D01*
X19489160Y17463539D02*
X19489160Y17154015D01*
X19489160Y17154015D02*
X19427255Y17030205D01*
X19427255Y17030205D02*
X19365350Y16968300D01*
X19365350Y16968300D02*
X19241541Y16906396D01*
X19241541Y16906396D02*
X18870112Y16906396D01*
X18870112Y16906396D02*
X18746303Y16968300D01*
X18746303Y16968300D02*
X18684398Y17030205D01*
D10*
D11*
X69365350Y17773062D02*
X69365350Y16906396D01*
X69055826Y18268300D02*
X68746303Y17339729D01*
X68746303Y17339729D02*
X69551064Y17339729D01*
D10*
D11*
X119427255Y18206396D02*
X118808207Y18206396D01*
X118808207Y18206396D02*
X118746303Y17587348D01*
X118746303Y17587348D02*
X118808207Y17649253D01*
X118808207Y17649253D02*
X118932017Y17711158D01*
X118932017Y17711158D02*
X119241541Y17711158D01*
X119241541Y17711158D02*
X119365350Y17649253D01*
X119365350Y17649253D02*
X119427255Y17587348D01*
X119427255Y17587348D02*
X119489160Y17463539D01*
X119489160Y17463539D02*
X119489160Y17154015D01*
X119489160Y17154015D02*
X119427255Y17030205D01*
X119427255Y17030205D02*
X119365350Y16968300D01*
X119365350Y16968300D02*
X119241541Y16906396D01*
X119241541Y16906396D02*
X118932017Y16906396D01*
X118932017Y16906396D02*
X118808207Y16968300D01*
X118808207Y16968300D02*
X118746303Y17030205D01*
D10*
D11*
X169365350Y18206396D02*
X169117731Y18206396D01*
X169117731Y18206396D02*
X168993922Y18144491D01*
X168993922Y18144491D02*
X168932017Y18082586D01*
X168932017Y18082586D02*
X168808207Y17896872D01*
X168808207Y17896872D02*
X168746303Y17649253D01*
X168746303Y17649253D02*
X168746303Y17154015D01*
X168746303Y17154015D02*
X168808207Y17030205D01*
X168808207Y17030205D02*
X168870112Y16968300D01*
X168870112Y16968300D02*
X168993922Y16906396D01*
X168993922Y16906396D02*
X169241541Y16906396D01*
X169241541Y16906396D02*
X169365350Y16968300D01*
X169365350Y16968300D02*
X169427255Y17030205D01*
X169427255Y17030205D02*
X169489160Y17154015D01*
X169489160Y17154015D02*
X169489160Y17463539D01*
X169489160Y17463539D02*
X169427255Y17587348D01*
X169427255Y17587348D02*
X169365350Y17649253D01*
X169365350Y17649253D02*
X169241541Y17711158D01*
X169241541Y17711158D02*
X168993922Y17711158D01*
X168993922Y17711158D02*
X168870112Y17649253D01*
X168870112Y17649253D02*
X168808207Y17587348D01*
X168808207Y17587348D02*
X168746303Y17463539D01*
D10*
D11*
X-56600000Y-169507200D02*
X-56600000Y-171507200D01*
D10*
D11*
X-6600000Y-169507200D02*
X-6600000Y-171507200D01*
D10*
D11*
X43400000Y-169507200D02*
X43400000Y-171507200D01*
D10*
D11*
X93400000Y-169507200D02*
X93400000Y-171507200D01*
D10*
D11*
X143400000Y-169507200D02*
X143400000Y-171507200D01*
D10*
D11*
X-80510840Y-171100804D02*
X-81253697Y-171100804D01*
X-80882269Y-171100804D02*
X-80882269Y-169800804D01*
X-80882269Y-169800804D02*
X-81006078Y-169986519D01*
X-81006078Y-169986519D02*
X-81129888Y-170110328D01*
X-81129888Y-170110328D02*
X-81253697Y-170172233D01*
D10*
D11*
X-31253697Y-169924614D02*
X-31191793Y-169862709D01*
X-31191793Y-169862709D02*
X-31067983Y-169800804D01*
X-31067983Y-169800804D02*
X-30758459Y-169800804D01*
X-30758459Y-169800804D02*
X-30634650Y-169862709D01*
X-30634650Y-169862709D02*
X-30572745Y-169924614D01*
X-30572745Y-169924614D02*
X-30510840Y-170048423D01*
X-30510840Y-170048423D02*
X-30510840Y-170172233D01*
X-30510840Y-170172233D02*
X-30572745Y-170357947D01*
X-30572745Y-170357947D02*
X-31315602Y-171100804D01*
X-31315602Y-171100804D02*
X-30510840Y-171100804D01*
D10*
D11*
X18684398Y-169800804D02*
X19489160Y-169800804D01*
X19489160Y-169800804D02*
X19055826Y-170296042D01*
X19055826Y-170296042D02*
X19241541Y-170296042D01*
X19241541Y-170296042D02*
X19365350Y-170357947D01*
X19365350Y-170357947D02*
X19427255Y-170419852D01*
X19427255Y-170419852D02*
X19489160Y-170543661D01*
X19489160Y-170543661D02*
X19489160Y-170853185D01*
X19489160Y-170853185D02*
X19427255Y-170976995D01*
X19427255Y-170976995D02*
X19365350Y-171038900D01*
X19365350Y-171038900D02*
X19241541Y-171100804D01*
X19241541Y-171100804D02*
X18870112Y-171100804D01*
X18870112Y-171100804D02*
X18746303Y-171038900D01*
X18746303Y-171038900D02*
X18684398Y-170976995D01*
D10*
D11*
X69365350Y-170234138D02*
X69365350Y-171100804D01*
X69055826Y-169738900D02*
X68746303Y-170667471D01*
X68746303Y-170667471D02*
X69551064Y-170667471D01*
D10*
D11*
X119427255Y-169800804D02*
X118808207Y-169800804D01*
X118808207Y-169800804D02*
X118746303Y-170419852D01*
X118746303Y-170419852D02*
X118808207Y-170357947D01*
X118808207Y-170357947D02*
X118932017Y-170296042D01*
X118932017Y-170296042D02*
X119241541Y-170296042D01*
X119241541Y-170296042D02*
X119365350Y-170357947D01*
X119365350Y-170357947D02*
X119427255Y-170419852D01*
X119427255Y-170419852D02*
X119489160Y-170543661D01*
X119489160Y-170543661D02*
X119489160Y-170853185D01*
X119489160Y-170853185D02*
X119427255Y-170976995D01*
X119427255Y-170976995D02*
X119365350Y-171038900D01*
X119365350Y-171038900D02*
X119241541Y-171100804D01*
X119241541Y-171100804D02*
X118932017Y-171100804D01*
X118932017Y-171100804D02*
X118808207Y-171038900D01*
X118808207Y-171038900D02*
X118746303Y-170976995D01*
D10*
D11*
X169365350Y-169800804D02*
X169117731Y-169800804D01*
X169117731Y-169800804D02*
X168993922Y-169862709D01*
X168993922Y-169862709D02*
X168932017Y-169924614D01*
X168932017Y-169924614D02*
X168808207Y-170110328D01*
X168808207Y-170110328D02*
X168746303Y-170357947D01*
X168746303Y-170357947D02*
X168746303Y-170853185D01*
X168746303Y-170853185D02*
X168808207Y-170976995D01*
X168808207Y-170976995D02*
X168870112Y-171038900D01*
X168870112Y-171038900D02*
X168993922Y-171100804D01*
X168993922Y-171100804D02*
X169241541Y-171100804D01*
X169241541Y-171100804D02*
X169365350Y-171038900D01*
X169365350Y-171038900D02*
X169427255Y-170976995D01*
X169427255Y-170976995D02*
X169489160Y-170853185D01*
X169489160Y-170853185D02*
X169489160Y-170543661D01*
X169489160Y-170543661D02*
X169427255Y-170419852D01*
X169427255Y-170419852D02*
X169365350Y-170357947D01*
X169365350Y-170357947D02*
X169241541Y-170296042D01*
X169241541Y-170296042D02*
X168993922Y-170296042D01*
X168993922Y-170296042D02*
X168870112Y-170357947D01*
X168870112Y-170357947D02*
X168808207Y-170419852D01*
X168808207Y-170419852D02*
X168746303Y-170543661D01*
D10*
D11*
X-106600000Y-31500000D02*
X-104600000Y-31500000D01*
D10*
D11*
X-106600000Y-81500000D02*
X-104600000Y-81500000D01*
D10*
D11*
X-106600000Y-131500000D02*
X-104600000Y-131500000D01*
D10*
D11*
X-105909524Y-6722176D02*
X-105290477Y-6722176D01*
X-106033334Y-7093604D02*
X-105600001Y-5793604D01*
X-105600001Y-5793604D02*
X-105166667Y-7093604D01*
D10*
D11*
X-105507143Y-56412652D02*
X-105321429Y-56474557D01*
X-105321429Y-56474557D02*
X-105259524Y-56536461D01*
X-105259524Y-56536461D02*
X-105197620Y-56660271D01*
X-105197620Y-56660271D02*
X-105197620Y-56845985D01*
X-105197620Y-56845985D02*
X-105259524Y-56969795D01*
X-105259524Y-56969795D02*
X-105321429Y-57031700D01*
X-105321429Y-57031700D02*
X-105445239Y-57093604D01*
X-105445239Y-57093604D02*
X-105940477Y-57093604D01*
X-105940477Y-57093604D02*
X-105940477Y-55793604D01*
X-105940477Y-55793604D02*
X-105507143Y-55793604D01*
X-105507143Y-55793604D02*
X-105383334Y-55855509D01*
X-105383334Y-55855509D02*
X-105321429Y-55917414D01*
X-105321429Y-55917414D02*
X-105259524Y-56041223D01*
X-105259524Y-56041223D02*
X-105259524Y-56165033D01*
X-105259524Y-56165033D02*
X-105321429Y-56288842D01*
X-105321429Y-56288842D02*
X-105383334Y-56350747D01*
X-105383334Y-56350747D02*
X-105507143Y-56412652D01*
X-105507143Y-56412652D02*
X-105940477Y-56412652D01*
D10*
D11*
X-105197620Y-106969795D02*
X-105259524Y-107031700D01*
X-105259524Y-107031700D02*
X-105445239Y-107093604D01*
X-105445239Y-107093604D02*
X-105569048Y-107093604D01*
X-105569048Y-107093604D02*
X-105754762Y-107031700D01*
X-105754762Y-107031700D02*
X-105878572Y-106907890D01*
X-105878572Y-106907890D02*
X-105940477Y-106784080D01*
X-105940477Y-106784080D02*
X-106002381Y-106536461D01*
X-106002381Y-106536461D02*
X-106002381Y-106350747D01*
X-106002381Y-106350747D02*
X-105940477Y-106103128D01*
X-105940477Y-106103128D02*
X-105878572Y-105979319D01*
X-105878572Y-105979319D02*
X-105754762Y-105855509D01*
X-105754762Y-105855509D02*
X-105569048Y-105793604D01*
X-105569048Y-105793604D02*
X-105445239Y-105793604D01*
X-105445239Y-105793604D02*
X-105259524Y-105855509D01*
X-105259524Y-105855509D02*
X-105197620Y-105917414D01*
D10*
D11*
X-105940477Y-157093604D02*
X-105940477Y-155793604D01*
X-105940477Y-155793604D02*
X-105630953Y-155793604D01*
X-105630953Y-155793604D02*
X-105445239Y-155855509D01*
X-105445239Y-155855509D02*
X-105321429Y-155979319D01*
X-105321429Y-155979319D02*
X-105259524Y-156103128D01*
X-105259524Y-156103128D02*
X-105197620Y-156350747D01*
X-105197620Y-156350747D02*
X-105197620Y-156536461D01*
X-105197620Y-156536461D02*
X-105259524Y-156784080D01*
X-105259524Y-156784080D02*
X-105321429Y-156907890D01*
X-105321429Y-156907890D02*
X-105445239Y-157031700D01*
X-105445239Y-157031700D02*
X-105630953Y-157093604D01*
X-105630953Y-157093604D02*
X-105940477Y-157093604D01*
D10*
D11*
X170402200Y-31500000D02*
X168402200Y-31500000D01*
D10*
D11*
X170402200Y-81500000D02*
X168402200Y-81500000D01*
D10*
D11*
X170402200Y-131500000D02*
X168402200Y-131500000D01*
D10*
D11*
X169092676Y-6722176D02*
X169711723Y-6722176D01*
X168968866Y-7093604D02*
X169402199Y-5793604D01*
X169402199Y-5793604D02*
X169835533Y-7093604D01*
D10*
D11*
X169495057Y-56412652D02*
X169680771Y-56474557D01*
X169680771Y-56474557D02*
X169742676Y-56536461D01*
X169742676Y-56536461D02*
X169804580Y-56660271D01*
X169804580Y-56660271D02*
X169804580Y-56845985D01*
X169804580Y-56845985D02*
X169742676Y-56969795D01*
X169742676Y-56969795D02*
X169680771Y-57031700D01*
X169680771Y-57031700D02*
X169556961Y-57093604D01*
X169556961Y-57093604D02*
X169061723Y-57093604D01*
X169061723Y-57093604D02*
X169061723Y-55793604D01*
X169061723Y-55793604D02*
X169495057Y-55793604D01*
X169495057Y-55793604D02*
X169618866Y-55855509D01*
X169618866Y-55855509D02*
X169680771Y-55917414D01*
X169680771Y-55917414D02*
X169742676Y-56041223D01*
X169742676Y-56041223D02*
X169742676Y-56165033D01*
X169742676Y-56165033D02*
X169680771Y-56288842D01*
X169680771Y-56288842D02*
X169618866Y-56350747D01*
X169618866Y-56350747D02*
X169495057Y-56412652D01*
X169495057Y-56412652D02*
X169061723Y-56412652D01*
D10*
D11*
X169804580Y-106969795D02*
X169742676Y-107031700D01*
X169742676Y-107031700D02*
X169556961Y-107093604D01*
X169556961Y-107093604D02*
X169433152Y-107093604D01*
X169433152Y-107093604D02*
X169247438Y-107031700D01*
X169247438Y-107031700D02*
X169123628Y-106907890D01*
X169123628Y-106907890D02*
X169061723Y-106784080D01*
X169061723Y-106784080D02*
X168999819Y-106536461D01*
X168999819Y-106536461D02*
X168999819Y-106350747D01*
X168999819Y-106350747D02*
X169061723Y-106103128D01*
X169061723Y-106103128D02*
X169123628Y-105979319D01*
X169123628Y-105979319D02*
X169247438Y-105855509D01*
X169247438Y-105855509D02*
X169433152Y-105793604D01*
X169433152Y-105793604D02*
X169556961Y-105793604D01*
X169556961Y-105793604D02*
X169742676Y-105855509D01*
X169742676Y-105855509D02*
X169804580Y-105917414D01*
D10*
D11*
X169061723Y-157093604D02*
X169061723Y-155793604D01*
X169061723Y-155793604D02*
X169371247Y-155793604D01*
X169371247Y-155793604D02*
X169556961Y-155855509D01*
X169556961Y-155855509D02*
X169680771Y-155979319D01*
X169680771Y-155979319D02*
X169742676Y-156103128D01*
X169742676Y-156103128D02*
X169804580Y-156350747D01*
X169804580Y-156350747D02*
X169804580Y-156536461D01*
X169804580Y-156536461D02*
X169742676Y-156784080D01*
X169742676Y-156784080D02*
X169680771Y-156907890D01*
X169680771Y-156907890D02*
X169556961Y-157031700D01*
X169556961Y-157031700D02*
X169371247Y-157093604D01*
X169371247Y-157093604D02*
X169061723Y-157093604D01*
D10*
D11*
X83858026Y-165293328D02*
X83858026Y-163793328D01*
X83858026Y-163793328D02*
X84215169Y-163793328D01*
X84215169Y-163793328D02*
X84429455Y-163864757D01*
X84429455Y-163864757D02*
X84572312Y-164007614D01*
X84572312Y-164007614D02*
X84643741Y-164150471D01*
X84643741Y-164150471D02*
X84715169Y-164436185D01*
X84715169Y-164436185D02*
X84715169Y-164650471D01*
X84715169Y-164650471D02*
X84643741Y-164936185D01*
X84643741Y-164936185D02*
X84572312Y-165079042D01*
X84572312Y-165079042D02*
X84429455Y-165221900D01*
X84429455Y-165221900D02*
X84215169Y-165293328D01*
X84215169Y-165293328D02*
X83858026Y-165293328D01*
X86000884Y-165293328D02*
X86000884Y-164507614D01*
X86000884Y-164507614D02*
X85929455Y-164364757D01*
X85929455Y-164364757D02*
X85786598Y-164293328D01*
X85786598Y-164293328D02*
X85500884Y-164293328D01*
X85500884Y-164293328D02*
X85358026Y-164364757D01*
X86000884Y-165221900D02*
X85858026Y-165293328D01*
X85858026Y-165293328D02*
X85500884Y-165293328D01*
X85500884Y-165293328D02*
X85358026Y-165221900D01*
X85358026Y-165221900D02*
X85286598Y-165079042D01*
X85286598Y-165079042D02*
X85286598Y-164936185D01*
X85286598Y-164936185D02*
X85358026Y-164793328D01*
X85358026Y-164793328D02*
X85500884Y-164721900D01*
X85500884Y-164721900D02*
X85858026Y-164721900D01*
X85858026Y-164721900D02*
X86000884Y-164650471D01*
X86500884Y-164293328D02*
X87072312Y-164293328D01*
X86715169Y-163793328D02*
X86715169Y-165079042D01*
X86715169Y-165079042D02*
X86786598Y-165221900D01*
X86786598Y-165221900D02*
X86929455Y-165293328D01*
X86929455Y-165293328D02*
X87072312Y-165293328D01*
X88143741Y-165221900D02*
X88000884Y-165293328D01*
X88000884Y-165293328D02*
X87715170Y-165293328D01*
X87715170Y-165293328D02*
X87572312Y-165221900D01*
X87572312Y-165221900D02*
X87500884Y-165079042D01*
X87500884Y-165079042D02*
X87500884Y-164507614D01*
X87500884Y-164507614D02*
X87572312Y-164364757D01*
X87572312Y-164364757D02*
X87715170Y-164293328D01*
X87715170Y-164293328D02*
X88000884Y-164293328D01*
X88000884Y-164293328D02*
X88143741Y-164364757D01*
X88143741Y-164364757D02*
X88215170Y-164507614D01*
X88215170Y-164507614D02*
X88215170Y-164650471D01*
X88215170Y-164650471D02*
X87500884Y-164793328D01*
X88858026Y-165150471D02*
X88929455Y-165221900D01*
X88929455Y-165221900D02*
X88858026Y-165293328D01*
X88858026Y-165293328D02*
X88786598Y-165221900D01*
X88786598Y-165221900D02*
X88858026Y-165150471D01*
X88858026Y-165150471D02*
X88858026Y-165293328D01*
X88858026Y-164364757D02*
X88929455Y-164436185D01*
X88929455Y-164436185D02*
X88858026Y-164507614D01*
X88858026Y-164507614D02*
X88786598Y-164436185D01*
X88786598Y-164436185D02*
X88858026Y-164364757D01*
X88858026Y-164364757D02*
X88858026Y-164507614D01*
X90643741Y-163936185D02*
X90715169Y-163864757D01*
X90715169Y-163864757D02*
X90858027Y-163793328D01*
X90858027Y-163793328D02*
X91215169Y-163793328D01*
X91215169Y-163793328D02*
X91358027Y-163864757D01*
X91358027Y-163864757D02*
X91429455Y-163936185D01*
X91429455Y-163936185D02*
X91500884Y-164079042D01*
X91500884Y-164079042D02*
X91500884Y-164221900D01*
X91500884Y-164221900D02*
X91429455Y-164436185D01*
X91429455Y-164436185D02*
X90572312Y-165293328D01*
X90572312Y-165293328D02*
X91500884Y-165293328D01*
X92429455Y-163793328D02*
X92572312Y-163793328D01*
X92572312Y-163793328D02*
X92715169Y-163864757D01*
X92715169Y-163864757D02*
X92786598Y-163936185D01*
X92786598Y-163936185D02*
X92858026Y-164079042D01*
X92858026Y-164079042D02*
X92929455Y-164364757D01*
X92929455Y-164364757D02*
X92929455Y-164721900D01*
X92929455Y-164721900D02*
X92858026Y-165007614D01*
X92858026Y-165007614D02*
X92786598Y-165150471D01*
X92786598Y-165150471D02*
X92715169Y-165221900D01*
X92715169Y-165221900D02*
X92572312Y-165293328D01*
X92572312Y-165293328D02*
X92429455Y-165293328D01*
X92429455Y-165293328D02*
X92286598Y-165221900D01*
X92286598Y-165221900D02*
X92215169Y-165150471D01*
X92215169Y-165150471D02*
X92143740Y-165007614D01*
X92143740Y-165007614D02*
X92072312Y-164721900D01*
X92072312Y-164721900D02*
X92072312Y-164364757D01*
X92072312Y-164364757D02*
X92143740Y-164079042D01*
X92143740Y-164079042D02*
X92215169Y-163936185D01*
X92215169Y-163936185D02*
X92286598Y-163864757D01*
X92286598Y-163864757D02*
X92429455Y-163793328D01*
X93500883Y-163936185D02*
X93572311Y-163864757D01*
X93572311Y-163864757D02*
X93715169Y-163793328D01*
X93715169Y-163793328D02*
X94072311Y-163793328D01*
X94072311Y-163793328D02*
X94215169Y-163864757D01*
X94215169Y-163864757D02*
X94286597Y-163936185D01*
X94286597Y-163936185D02*
X94358026Y-164079042D01*
X94358026Y-164079042D02*
X94358026Y-164221900D01*
X94358026Y-164221900D02*
X94286597Y-164436185D01*
X94286597Y-164436185D02*
X93429454Y-165293328D01*
X93429454Y-165293328D02*
X94358026Y-165293328D01*
X95643740Y-164293328D02*
X95643740Y-165293328D01*
X95286597Y-163721900D02*
X94929454Y-164793328D01*
X94929454Y-164793328D02*
X95858025Y-164793328D01*
X96429453Y-164721900D02*
X97572311Y-164721900D01*
X98572311Y-163793328D02*
X98715168Y-163793328D01*
X98715168Y-163793328D02*
X98858025Y-163864757D01*
X98858025Y-163864757D02*
X98929454Y-163936185D01*
X98929454Y-163936185D02*
X99000882Y-164079042D01*
X99000882Y-164079042D02*
X99072311Y-164364757D01*
X99072311Y-164364757D02*
X99072311Y-164721900D01*
X99072311Y-164721900D02*
X99000882Y-165007614D01*
X99000882Y-165007614D02*
X98929454Y-165150471D01*
X98929454Y-165150471D02*
X98858025Y-165221900D01*
X98858025Y-165221900D02*
X98715168Y-165293328D01*
X98715168Y-165293328D02*
X98572311Y-165293328D01*
X98572311Y-165293328D02*
X98429454Y-165221900D01*
X98429454Y-165221900D02*
X98358025Y-165150471D01*
X98358025Y-165150471D02*
X98286596Y-165007614D01*
X98286596Y-165007614D02*
X98215168Y-164721900D01*
X98215168Y-164721900D02*
X98215168Y-164364757D01*
X98215168Y-164364757D02*
X98286596Y-164079042D01*
X98286596Y-164079042D02*
X98358025Y-163936185D01*
X98358025Y-163936185D02*
X98429454Y-163864757D01*
X98429454Y-163864757D02*
X98572311Y-163793328D01*
X99643739Y-163936185D02*
X99715167Y-163864757D01*
X99715167Y-163864757D02*
X99858025Y-163793328D01*
X99858025Y-163793328D02*
X100215167Y-163793328D01*
X100215167Y-163793328D02*
X100358025Y-163864757D01*
X100358025Y-163864757D02*
X100429453Y-163936185D01*
X100429453Y-163936185D02*
X100500882Y-164079042D01*
X100500882Y-164079042D02*
X100500882Y-164221900D01*
X100500882Y-164221900D02*
X100429453Y-164436185D01*
X100429453Y-164436185D02*
X99572310Y-165293328D01*
X99572310Y-165293328D02*
X100500882Y-165293328D01*
X101143738Y-164721900D02*
X102286596Y-164721900D01*
X102929453Y-163936185D02*
X103000881Y-163864757D01*
X103000881Y-163864757D02*
X103143739Y-163793328D01*
X103143739Y-163793328D02*
X103500881Y-163793328D01*
X103500881Y-163793328D02*
X103643739Y-163864757D01*
X103643739Y-163864757D02*
X103715167Y-163936185D01*
X103715167Y-163936185D02*
X103786596Y-164079042D01*
X103786596Y-164079042D02*
X103786596Y-164221900D01*
X103786596Y-164221900D02*
X103715167Y-164436185D01*
X103715167Y-164436185D02*
X102858024Y-165293328D01*
X102858024Y-165293328D02*
X103786596Y-165293328D01*
X104286595Y-163793328D02*
X105286595Y-163793328D01*
X105286595Y-163793328D02*
X104643738Y-165293328D01*
D10*
D11*
X60402200Y-166007200D02*
X168402200Y-166007200D01*
D10*
D11*
X61858026Y-168093328D02*
X61858026Y-166593328D01*
X62715169Y-168093328D02*
X62072312Y-167236185D01*
X62715169Y-166593328D02*
X61858026Y-167450471D01*
X63358026Y-168093328D02*
X63358026Y-167093328D01*
X63358026Y-166593328D02*
X63286598Y-166664757D01*
X63286598Y-166664757D02*
X63358026Y-166736185D01*
X63358026Y-166736185D02*
X63429455Y-166664757D01*
X63429455Y-166664757D02*
X63358026Y-166593328D01*
X63358026Y-166593328D02*
X63358026Y-166736185D01*
X64929455Y-167950471D02*
X64858027Y-168021900D01*
X64858027Y-168021900D02*
X64643741Y-168093328D01*
X64643741Y-168093328D02*
X64500884Y-168093328D01*
X64500884Y-168093328D02*
X64286598Y-168021900D01*
X64286598Y-168021900D02*
X64143741Y-167879042D01*
X64143741Y-167879042D02*
X64072312Y-167736185D01*
X64072312Y-167736185D02*
X64000884Y-167450471D01*
X64000884Y-167450471D02*
X64000884Y-167236185D01*
X64000884Y-167236185D02*
X64072312Y-166950471D01*
X64072312Y-166950471D02*
X64143741Y-166807614D01*
X64143741Y-166807614D02*
X64286598Y-166664757D01*
X64286598Y-166664757D02*
X64500884Y-166593328D01*
X64500884Y-166593328D02*
X64643741Y-166593328D01*
X64643741Y-166593328D02*
X64858027Y-166664757D01*
X64858027Y-166664757D02*
X64929455Y-166736185D01*
X66215170Y-168093328D02*
X66215170Y-167307614D01*
X66215170Y-167307614D02*
X66143741Y-167164757D01*
X66143741Y-167164757D02*
X66000884Y-167093328D01*
X66000884Y-167093328D02*
X65715170Y-167093328D01*
X65715170Y-167093328D02*
X65572312Y-167164757D01*
X66215170Y-168021900D02*
X66072312Y-168093328D01*
X66072312Y-168093328D02*
X65715170Y-168093328D01*
X65715170Y-168093328D02*
X65572312Y-168021900D01*
X65572312Y-168021900D02*
X65500884Y-167879042D01*
X65500884Y-167879042D02*
X65500884Y-167736185D01*
X65500884Y-167736185D02*
X65572312Y-167593328D01*
X65572312Y-167593328D02*
X65715170Y-167521900D01*
X65715170Y-167521900D02*
X66072312Y-167521900D01*
X66072312Y-167521900D02*
X66215170Y-167450471D01*
X67572313Y-168093328D02*
X67572313Y-166593328D01*
X67572313Y-168021900D02*
X67429455Y-168093328D01*
X67429455Y-168093328D02*
X67143741Y-168093328D01*
X67143741Y-168093328D02*
X67000884Y-168021900D01*
X67000884Y-168021900D02*
X66929455Y-167950471D01*
X66929455Y-167950471D02*
X66858027Y-167807614D01*
X66858027Y-167807614D02*
X66858027Y-167379042D01*
X66858027Y-167379042D02*
X66929455Y-167236185D01*
X66929455Y-167236185D02*
X67000884Y-167164757D01*
X67000884Y-167164757D02*
X67143741Y-167093328D01*
X67143741Y-167093328D02*
X67429455Y-167093328D01*
X67429455Y-167093328D02*
X67572313Y-167164757D01*
X69429455Y-167307614D02*
X69929455Y-167307614D01*
X70143741Y-168093328D02*
X69429455Y-168093328D01*
X69429455Y-168093328D02*
X69429455Y-166593328D01*
X69429455Y-166593328D02*
X70143741Y-166593328D01*
X70786598Y-167950471D02*
X70858027Y-168021900D01*
X70858027Y-168021900D02*
X70786598Y-168093328D01*
X70786598Y-168093328D02*
X70715170Y-168021900D01*
X70715170Y-168021900D02*
X70786598Y-167950471D01*
X70786598Y-167950471D02*
X70786598Y-168093328D01*
X71500884Y-168093328D02*
X71500884Y-166593328D01*
X71500884Y-166593328D02*
X71858027Y-166593328D01*
X71858027Y-166593328D02*
X72072313Y-166664757D01*
X72072313Y-166664757D02*
X72215170Y-166807614D01*
X72215170Y-166807614D02*
X72286599Y-166950471D01*
X72286599Y-166950471D02*
X72358027Y-167236185D01*
X72358027Y-167236185D02*
X72358027Y-167450471D01*
X72358027Y-167450471D02*
X72286599Y-167736185D01*
X72286599Y-167736185D02*
X72215170Y-167879042D01*
X72215170Y-167879042D02*
X72072313Y-168021900D01*
X72072313Y-168021900D02*
X71858027Y-168093328D01*
X71858027Y-168093328D02*
X71500884Y-168093328D01*
X73000884Y-167950471D02*
X73072313Y-168021900D01*
X73072313Y-168021900D02*
X73000884Y-168093328D01*
X73000884Y-168093328D02*
X72929456Y-168021900D01*
X72929456Y-168021900D02*
X73000884Y-167950471D01*
X73000884Y-167950471D02*
X73000884Y-168093328D01*
X73643742Y-167664757D02*
X74358028Y-167664757D01*
X73500885Y-168093328D02*
X74000885Y-166593328D01*
X74000885Y-166593328D02*
X74500885Y-168093328D01*
X75000884Y-167950471D02*
X75072313Y-168021900D01*
X75072313Y-168021900D02*
X75000884Y-168093328D01*
X75000884Y-168093328D02*
X74929456Y-168021900D01*
X74929456Y-168021900D02*
X75000884Y-167950471D01*
X75000884Y-167950471D02*
X75000884Y-168093328D01*
X77072313Y-167236185D02*
X76929456Y-167164757D01*
X76929456Y-167164757D02*
X76858027Y-167093328D01*
X76858027Y-167093328D02*
X76786599Y-166950471D01*
X76786599Y-166950471D02*
X76786599Y-166879042D01*
X76786599Y-166879042D02*
X76858027Y-166736185D01*
X76858027Y-166736185D02*
X76929456Y-166664757D01*
X76929456Y-166664757D02*
X77072313Y-166593328D01*
X77072313Y-166593328D02*
X77358027Y-166593328D01*
X77358027Y-166593328D02*
X77500885Y-166664757D01*
X77500885Y-166664757D02*
X77572313Y-166736185D01*
X77572313Y-166736185D02*
X77643742Y-166879042D01*
X77643742Y-166879042D02*
X77643742Y-166950471D01*
X77643742Y-166950471D02*
X77572313Y-167093328D01*
X77572313Y-167093328D02*
X77500885Y-167164757D01*
X77500885Y-167164757D02*
X77358027Y-167236185D01*
X77358027Y-167236185D02*
X77072313Y-167236185D01*
X77072313Y-167236185D02*
X76929456Y-167307614D01*
X76929456Y-167307614D02*
X76858027Y-167379042D01*
X76858027Y-167379042D02*
X76786599Y-167521900D01*
X76786599Y-167521900D02*
X76786599Y-167807614D01*
X76786599Y-167807614D02*
X76858027Y-167950471D01*
X76858027Y-167950471D02*
X76929456Y-168021900D01*
X76929456Y-168021900D02*
X77072313Y-168093328D01*
X77072313Y-168093328D02*
X77358027Y-168093328D01*
X77358027Y-168093328D02*
X77500885Y-168021900D01*
X77500885Y-168021900D02*
X77572313Y-167950471D01*
X77572313Y-167950471D02*
X77643742Y-167807614D01*
X77643742Y-167807614D02*
X77643742Y-167521900D01*
X77643742Y-167521900D02*
X77572313Y-167379042D01*
X77572313Y-167379042D02*
X77500885Y-167307614D01*
X77500885Y-167307614D02*
X77358027Y-167236185D01*
X78286598Y-167950471D02*
X78358027Y-168021900D01*
X78358027Y-168021900D02*
X78286598Y-168093328D01*
X78286598Y-168093328D02*
X78215170Y-168021900D01*
X78215170Y-168021900D02*
X78286598Y-167950471D01*
X78286598Y-167950471D02*
X78286598Y-168093328D01*
X79286599Y-166593328D02*
X79429456Y-166593328D01*
X79429456Y-166593328D02*
X79572313Y-166664757D01*
X79572313Y-166664757D02*
X79643742Y-166736185D01*
X79643742Y-166736185D02*
X79715170Y-166879042D01*
X79715170Y-166879042D02*
X79786599Y-167164757D01*
X79786599Y-167164757D02*
X79786599Y-167521900D01*
X79786599Y-167521900D02*
X79715170Y-167807614D01*
X79715170Y-167807614D02*
X79643742Y-167950471D01*
X79643742Y-167950471D02*
X79572313Y-168021900D01*
X79572313Y-168021900D02*
X79429456Y-168093328D01*
X79429456Y-168093328D02*
X79286599Y-168093328D01*
X79286599Y-168093328D02*
X79143742Y-168021900D01*
X79143742Y-168021900D02*
X79072313Y-167950471D01*
X79072313Y-167950471D02*
X79000884Y-167807614D01*
X79000884Y-167807614D02*
X78929456Y-167521900D01*
X78929456Y-167521900D02*
X78929456Y-167164757D01*
X78929456Y-167164757D02*
X79000884Y-166879042D01*
X79000884Y-166879042D02*
X79072313Y-166736185D01*
X79072313Y-166736185D02*
X79143742Y-166664757D01*
X79143742Y-166664757D02*
X79286599Y-166593328D01*
X80429455Y-167950471D02*
X80500884Y-168021900D01*
X80500884Y-168021900D02*
X80429455Y-168093328D01*
X80429455Y-168093328D02*
X80358027Y-168021900D01*
X80358027Y-168021900D02*
X80429455Y-167950471D01*
X80429455Y-167950471D02*
X80429455Y-168093328D01*
X81429456Y-166593328D02*
X81572313Y-166593328D01*
X81572313Y-166593328D02*
X81715170Y-166664757D01*
X81715170Y-166664757D02*
X81786599Y-166736185D01*
X81786599Y-166736185D02*
X81858027Y-166879042D01*
X81858027Y-166879042D02*
X81929456Y-167164757D01*
X81929456Y-167164757D02*
X81929456Y-167521900D01*
X81929456Y-167521900D02*
X81858027Y-167807614D01*
X81858027Y-167807614D02*
X81786599Y-167950471D01*
X81786599Y-167950471D02*
X81715170Y-168021900D01*
X81715170Y-168021900D02*
X81572313Y-168093328D01*
X81572313Y-168093328D02*
X81429456Y-168093328D01*
X81429456Y-168093328D02*
X81286599Y-168021900D01*
X81286599Y-168021900D02*
X81215170Y-167950471D01*
X81215170Y-167950471D02*
X81143741Y-167807614D01*
X81143741Y-167807614D02*
X81072313Y-167521900D01*
X81072313Y-167521900D02*
X81072313Y-167164757D01*
X81072313Y-167164757D02*
X81143741Y-166879042D01*
X81143741Y-166879042D02*
X81215170Y-166736185D01*
X81215170Y-166736185D02*
X81286599Y-166664757D01*
X81286599Y-166664757D02*
X81429456Y-166593328D01*
D10*
D11*
X60402200Y-163007200D02*
X168402200Y-163007200D01*
D10*
D12*
X147813853Y-165285528D02*
X147313853Y-164571242D01*
X146956710Y-165285528D02*
X146956710Y-163785528D01*
X146956710Y-163785528D02*
X147528139Y-163785528D01*
X147528139Y-163785528D02*
X147670996Y-163856957D01*
X147670996Y-163856957D02*
X147742425Y-163928385D01*
X147742425Y-163928385D02*
X147813853Y-164071242D01*
X147813853Y-164071242D02*
X147813853Y-164285528D01*
X147813853Y-164285528D02*
X147742425Y-164428385D01*
X147742425Y-164428385D02*
X147670996Y-164499814D01*
X147670996Y-164499814D02*
X147528139Y-164571242D01*
X147528139Y-164571242D02*
X146956710Y-164571242D01*
X149028139Y-165214100D02*
X148885282Y-165285528D01*
X148885282Y-165285528D02*
X148599568Y-165285528D01*
X148599568Y-165285528D02*
X148456710Y-165214100D01*
X148456710Y-165214100D02*
X148385282Y-165071242D01*
X148385282Y-165071242D02*
X148385282Y-164499814D01*
X148385282Y-164499814D02*
X148456710Y-164356957D01*
X148456710Y-164356957D02*
X148599568Y-164285528D01*
X148599568Y-164285528D02*
X148885282Y-164285528D01*
X148885282Y-164285528D02*
X149028139Y-164356957D01*
X149028139Y-164356957D02*
X149099568Y-164499814D01*
X149099568Y-164499814D02*
X149099568Y-164642671D01*
X149099568Y-164642671D02*
X148385282Y-164785528D01*
X149599567Y-164285528D02*
X149956710Y-165285528D01*
X149956710Y-165285528D02*
X150313853Y-164285528D01*
X150885281Y-165142671D02*
X150956710Y-165214100D01*
X150956710Y-165214100D02*
X150885281Y-165285528D01*
X150885281Y-165285528D02*
X150813853Y-165214100D01*
X150813853Y-165214100D02*
X150885281Y-165142671D01*
X150885281Y-165142671D02*
X150885281Y-165285528D01*
X150885281Y-164356957D02*
X150956710Y-164428385D01*
X150956710Y-164428385D02*
X150885281Y-164499814D01*
X150885281Y-164499814D02*
X150813853Y-164428385D01*
X150813853Y-164428385D02*
X150885281Y-164356957D01*
X150885281Y-164356957D02*
X150885281Y-164499814D01*
D10*
D11*
X61786598Y-165221900D02*
X62000884Y-165293328D01*
X62000884Y-165293328D02*
X62358026Y-165293328D01*
X62358026Y-165293328D02*
X62500884Y-165221900D01*
X62500884Y-165221900D02*
X62572312Y-165150471D01*
X62572312Y-165150471D02*
X62643741Y-165007614D01*
X62643741Y-165007614D02*
X62643741Y-164864757D01*
X62643741Y-164864757D02*
X62572312Y-164721900D01*
X62572312Y-164721900D02*
X62500884Y-164650471D01*
X62500884Y-164650471D02*
X62358026Y-164579042D01*
X62358026Y-164579042D02*
X62072312Y-164507614D01*
X62072312Y-164507614D02*
X61929455Y-164436185D01*
X61929455Y-164436185D02*
X61858026Y-164364757D01*
X61858026Y-164364757D02*
X61786598Y-164221900D01*
X61786598Y-164221900D02*
X61786598Y-164079042D01*
X61786598Y-164079042D02*
X61858026Y-163936185D01*
X61858026Y-163936185D02*
X61929455Y-163864757D01*
X61929455Y-163864757D02*
X62072312Y-163793328D01*
X62072312Y-163793328D02*
X62429455Y-163793328D01*
X62429455Y-163793328D02*
X62643741Y-163864757D01*
X63286597Y-165293328D02*
X63286597Y-164293328D01*
X63286597Y-163793328D02*
X63215169Y-163864757D01*
X63215169Y-163864757D02*
X63286597Y-163936185D01*
X63286597Y-163936185D02*
X63358026Y-163864757D01*
X63358026Y-163864757D02*
X63286597Y-163793328D01*
X63286597Y-163793328D02*
X63286597Y-163936185D01*
X63858026Y-164293328D02*
X64643741Y-164293328D01*
X64643741Y-164293328D02*
X63858026Y-165293328D01*
X63858026Y-165293328D02*
X64643741Y-165293328D01*
X65786598Y-165221900D02*
X65643741Y-165293328D01*
X65643741Y-165293328D02*
X65358027Y-165293328D01*
X65358027Y-165293328D02*
X65215169Y-165221900D01*
X65215169Y-165221900D02*
X65143741Y-165079042D01*
X65143741Y-165079042D02*
X65143741Y-164507614D01*
X65143741Y-164507614D02*
X65215169Y-164364757D01*
X65215169Y-164364757D02*
X65358027Y-164293328D01*
X65358027Y-164293328D02*
X65643741Y-164293328D01*
X65643741Y-164293328D02*
X65786598Y-164364757D01*
X65786598Y-164364757D02*
X65858027Y-164507614D01*
X65858027Y-164507614D02*
X65858027Y-164650471D01*
X65858027Y-164650471D02*
X65143741Y-164793328D01*
X66500883Y-165150471D02*
X66572312Y-165221900D01*
X66572312Y-165221900D02*
X66500883Y-165293328D01*
X66500883Y-165293328D02*
X66429455Y-165221900D01*
X66429455Y-165221900D02*
X66500883Y-165150471D01*
X66500883Y-165150471D02*
X66500883Y-165293328D01*
X66500883Y-164364757D02*
X66572312Y-164436185D01*
X66572312Y-164436185D02*
X66500883Y-164507614D01*
X66500883Y-164507614D02*
X66429455Y-164436185D01*
X66429455Y-164436185D02*
X66500883Y-164364757D01*
X66500883Y-164364757D02*
X66500883Y-164507614D01*
X68286598Y-164864757D02*
X69000884Y-164864757D01*
X68143741Y-165293328D02*
X68643741Y-163793328D01*
X68643741Y-163793328D02*
X69143741Y-165293328D01*
X70286598Y-164293328D02*
X70286598Y-165293328D01*
X69929455Y-163721900D02*
X69572312Y-164793328D01*
X69572312Y-164793328D02*
X70500883Y-164793328D01*
D10*
D11*
X146858026Y-168093328D02*
X146858026Y-166593328D01*
X148215170Y-168093328D02*
X148215170Y-166593328D01*
X148215170Y-168021900D02*
X148072312Y-168093328D01*
X148072312Y-168093328D02*
X147786598Y-168093328D01*
X147786598Y-168093328D02*
X147643741Y-168021900D01*
X147643741Y-168021900D02*
X147572312Y-167950471D01*
X147572312Y-167950471D02*
X147500884Y-167807614D01*
X147500884Y-167807614D02*
X147500884Y-167379042D01*
X147500884Y-167379042D02*
X147572312Y-167236185D01*
X147572312Y-167236185D02*
X147643741Y-167164757D01*
X147643741Y-167164757D02*
X147786598Y-167093328D01*
X147786598Y-167093328D02*
X148072312Y-167093328D01*
X148072312Y-167093328D02*
X148215170Y-167164757D01*
X148929455Y-167950471D02*
X149000884Y-168021900D01*
X149000884Y-168021900D02*
X148929455Y-168093328D01*
X148929455Y-168093328D02*
X148858027Y-168021900D01*
X148858027Y-168021900D02*
X148929455Y-167950471D01*
X148929455Y-167950471D02*
X148929455Y-168093328D01*
X148929455Y-167164757D02*
X149000884Y-167236185D01*
X149000884Y-167236185D02*
X148929455Y-167307614D01*
X148929455Y-167307614D02*
X148858027Y-167236185D01*
X148858027Y-167236185D02*
X148929455Y-167164757D01*
X148929455Y-167164757D02*
X148929455Y-167307614D01*
X151572313Y-168093328D02*
X150715170Y-168093328D01*
X151143741Y-168093328D02*
X151143741Y-166593328D01*
X151143741Y-166593328D02*
X151000884Y-166807614D01*
X151000884Y-166807614D02*
X150858027Y-166950471D01*
X150858027Y-166950471D02*
X150715170Y-167021900D01*
X153286598Y-166521900D02*
X152000884Y-168450471D01*
X154572313Y-168093328D02*
X153715170Y-168093328D01*
X154143741Y-168093328D02*
X154143741Y-166593328D01*
X154143741Y-166593328D02*
X154000884Y-166807614D01*
X154000884Y-166807614D02*
X153858027Y-166950471D01*
X153858027Y-166950471D02*
X153715170Y-167021900D01*
D10*
D11*
X60402200Y-159007200D02*
X168402200Y-159007200D01*
D10*
D13*
X62093928Y-159711638D02*
X63236785Y-159711638D01*
X62415357Y-161711638D02*
X62665357Y-159711638D01*
X63653452Y-161711638D02*
X63820119Y-160378304D01*
X63903452Y-159711638D02*
X63796309Y-159806876D01*
X63796309Y-159806876D02*
X63879643Y-159902114D01*
X63879643Y-159902114D02*
X63986786Y-159806876D01*
X63986786Y-159806876D02*
X63903452Y-159711638D01*
X63903452Y-159711638D02*
X63879643Y-159902114D01*
X64486786Y-160378304D02*
X65248690Y-160378304D01*
X64855833Y-159711638D02*
X64641548Y-161425923D01*
X64641548Y-161425923D02*
X64712976Y-161616400D01*
X64712976Y-161616400D02*
X64891548Y-161711638D01*
X64891548Y-161711638D02*
X65082024Y-161711638D01*
X66034405Y-161711638D02*
X65855833Y-161616400D01*
X65855833Y-161616400D02*
X65784405Y-161425923D01*
X65784405Y-161425923D02*
X65998690Y-159711638D01*
X67570119Y-161616400D02*
X67367738Y-161711638D01*
X67367738Y-161711638D02*
X66986785Y-161711638D01*
X66986785Y-161711638D02*
X66808214Y-161616400D01*
X66808214Y-161616400D02*
X66736785Y-161425923D01*
X66736785Y-161425923D02*
X66832024Y-160664019D01*
X66832024Y-160664019D02*
X66951071Y-160473542D01*
X66951071Y-160473542D02*
X67153452Y-160378304D01*
X67153452Y-160378304D02*
X67534404Y-160378304D01*
X67534404Y-160378304D02*
X67712976Y-160473542D01*
X67712976Y-160473542D02*
X67784404Y-160664019D01*
X67784404Y-160664019D02*
X67760595Y-160854495D01*
X67760595Y-160854495D02*
X66784404Y-161044971D01*
X68534405Y-161521161D02*
X68617738Y-161616400D01*
X68617738Y-161616400D02*
X68510595Y-161711638D01*
X68510595Y-161711638D02*
X68427262Y-161616400D01*
X68427262Y-161616400D02*
X68534405Y-161521161D01*
X68534405Y-161521161D02*
X68510595Y-161711638D01*
X68665357Y-160473542D02*
X68748690Y-160568780D01*
X68748690Y-160568780D02*
X68641548Y-160664019D01*
X68641548Y-160664019D02*
X68558214Y-160568780D01*
X68558214Y-160568780D02*
X68665357Y-160473542D01*
X68665357Y-160473542D02*
X68641548Y-160664019D01*
D10*
D11*
X62358026Y-157107614D02*
X61858026Y-157107614D01*
X61858026Y-157893328D02*
X61858026Y-156393328D01*
X61858026Y-156393328D02*
X62572312Y-156393328D01*
X63143740Y-157893328D02*
X63143740Y-156893328D01*
X63143740Y-156393328D02*
X63072312Y-156464757D01*
X63072312Y-156464757D02*
X63143740Y-156536185D01*
X63143740Y-156536185D02*
X63215169Y-156464757D01*
X63215169Y-156464757D02*
X63143740Y-156393328D01*
X63143740Y-156393328D02*
X63143740Y-156536185D01*
X64072312Y-157893328D02*
X63929455Y-157821900D01*
X63929455Y-157821900D02*
X63858026Y-157679042D01*
X63858026Y-157679042D02*
X63858026Y-156393328D01*
X65215169Y-157821900D02*
X65072312Y-157893328D01*
X65072312Y-157893328D02*
X64786598Y-157893328D01*
X64786598Y-157893328D02*
X64643740Y-157821900D01*
X64643740Y-157821900D02*
X64572312Y-157679042D01*
X64572312Y-157679042D02*
X64572312Y-157107614D01*
X64572312Y-157107614D02*
X64643740Y-156964757D01*
X64643740Y-156964757D02*
X64786598Y-156893328D01*
X64786598Y-156893328D02*
X65072312Y-156893328D01*
X65072312Y-156893328D02*
X65215169Y-156964757D01*
X65215169Y-156964757D02*
X65286598Y-157107614D01*
X65286598Y-157107614D02*
X65286598Y-157250471D01*
X65286598Y-157250471D02*
X64572312Y-157393328D01*
X65929454Y-157750471D02*
X66000883Y-157821900D01*
X66000883Y-157821900D02*
X65929454Y-157893328D01*
X65929454Y-157893328D02*
X65858026Y-157821900D01*
X65858026Y-157821900D02*
X65929454Y-157750471D01*
X65929454Y-157750471D02*
X65929454Y-157893328D01*
X65929454Y-156964757D02*
X66000883Y-157036185D01*
X66000883Y-157036185D02*
X65929454Y-157107614D01*
X65929454Y-157107614D02*
X65858026Y-157036185D01*
X65858026Y-157036185D02*
X65929454Y-156964757D01*
X65929454Y-156964757D02*
X65929454Y-157107614D01*
X67786597Y-157107614D02*
X68286597Y-157107614D01*
X68500883Y-157893328D02*
X67786597Y-157893328D01*
X67786597Y-157893328D02*
X67786597Y-156393328D01*
X67786597Y-156393328D02*
X68500883Y-156393328D01*
X69072312Y-157821900D02*
X69286598Y-157893328D01*
X69286598Y-157893328D02*
X69643740Y-157893328D01*
X69643740Y-157893328D02*
X69786598Y-157821900D01*
X69786598Y-157821900D02*
X69858026Y-157750471D01*
X69858026Y-157750471D02*
X69929455Y-157607614D01*
X69929455Y-157607614D02*
X69929455Y-157464757D01*
X69929455Y-157464757D02*
X69858026Y-157321900D01*
X69858026Y-157321900D02*
X69786598Y-157250471D01*
X69786598Y-157250471D02*
X69643740Y-157179042D01*
X69643740Y-157179042D02*
X69358026Y-157107614D01*
X69358026Y-157107614D02*
X69215169Y-157036185D01*
X69215169Y-157036185D02*
X69143740Y-156964757D01*
X69143740Y-156964757D02*
X69072312Y-156821900D01*
X69072312Y-156821900D02*
X69072312Y-156679042D01*
X69072312Y-156679042D02*
X69143740Y-156536185D01*
X69143740Y-156536185D02*
X69215169Y-156464757D01*
X69215169Y-156464757D02*
X69358026Y-156393328D01*
X69358026Y-156393328D02*
X69715169Y-156393328D01*
X69715169Y-156393328D02*
X69929455Y-156464757D01*
X70572311Y-157893328D02*
X70572311Y-156393328D01*
X70572311Y-156393328D02*
X71143740Y-156393328D01*
X71143740Y-156393328D02*
X71286597Y-156464757D01*
X71286597Y-156464757D02*
X71358026Y-156536185D01*
X71358026Y-156536185D02*
X71429454Y-156679042D01*
X71429454Y-156679042D02*
X71429454Y-156893328D01*
X71429454Y-156893328D02*
X71358026Y-157036185D01*
X71358026Y-157036185D02*
X71286597Y-157107614D01*
X71286597Y-157107614D02*
X71143740Y-157179042D01*
X71143740Y-157179042D02*
X70572311Y-157179042D01*
X72072311Y-157893328D02*
X72072311Y-156893328D01*
X72072311Y-156393328D02*
X72000883Y-156464757D01*
X72000883Y-156464757D02*
X72072311Y-156536185D01*
X72072311Y-156536185D02*
X72143740Y-156464757D01*
X72143740Y-156464757D02*
X72072311Y-156393328D01*
X72072311Y-156393328D02*
X72072311Y-156536185D01*
X73000883Y-157893328D02*
X72858026Y-157821900D01*
X72858026Y-157821900D02*
X72786597Y-157679042D01*
X72786597Y-157679042D02*
X72786597Y-156393328D01*
X73786597Y-157893328D02*
X73643740Y-157821900D01*
X73643740Y-157821900D02*
X73572311Y-157750471D01*
X73572311Y-157750471D02*
X73500883Y-157607614D01*
X73500883Y-157607614D02*
X73500883Y-157179042D01*
X73500883Y-157179042D02*
X73572311Y-157036185D01*
X73572311Y-157036185D02*
X73643740Y-156964757D01*
X73643740Y-156964757D02*
X73786597Y-156893328D01*
X73786597Y-156893328D02*
X74000883Y-156893328D01*
X74000883Y-156893328D02*
X74143740Y-156964757D01*
X74143740Y-156964757D02*
X74215169Y-157036185D01*
X74215169Y-157036185D02*
X74286597Y-157179042D01*
X74286597Y-157179042D02*
X74286597Y-157607614D01*
X74286597Y-157607614D02*
X74215169Y-157750471D01*
X74215169Y-157750471D02*
X74143740Y-157821900D01*
X74143740Y-157821900D02*
X74000883Y-157893328D01*
X74000883Y-157893328D02*
X73786597Y-157893328D01*
X74715169Y-156893328D02*
X75286597Y-156893328D01*
X74929454Y-156393328D02*
X74929454Y-157679042D01*
X74929454Y-157679042D02*
X75000883Y-157821900D01*
X75000883Y-157821900D02*
X75143740Y-157893328D01*
X75143740Y-157893328D02*
X75286597Y-157893328D01*
X75786597Y-157750471D02*
X75858026Y-157821900D01*
X75858026Y-157821900D02*
X75786597Y-157893328D01*
X75786597Y-157893328D02*
X75715169Y-157821900D01*
X75715169Y-157821900D02*
X75786597Y-157750471D01*
X75786597Y-157750471D02*
X75786597Y-157893328D01*
X76500883Y-157893328D02*
X76500883Y-156393328D01*
X76643741Y-157321900D02*
X77072312Y-157893328D01*
X77072312Y-156893328D02*
X76500883Y-157464757D01*
X77715169Y-157893328D02*
X77715169Y-156893328D01*
X77715169Y-156393328D02*
X77643741Y-156464757D01*
X77643741Y-156464757D02*
X77715169Y-156536185D01*
X77715169Y-156536185D02*
X77786598Y-156464757D01*
X77786598Y-156464757D02*
X77715169Y-156393328D01*
X77715169Y-156393328D02*
X77715169Y-156536185D01*
X79072313Y-157821900D02*
X78929455Y-157893328D01*
X78929455Y-157893328D02*
X78643741Y-157893328D01*
X78643741Y-157893328D02*
X78500884Y-157821900D01*
X78500884Y-157821900D02*
X78429455Y-157750471D01*
X78429455Y-157750471D02*
X78358027Y-157607614D01*
X78358027Y-157607614D02*
X78358027Y-157179042D01*
X78358027Y-157179042D02*
X78429455Y-157036185D01*
X78429455Y-157036185D02*
X78500884Y-156964757D01*
X78500884Y-156964757D02*
X78643741Y-156893328D01*
X78643741Y-156893328D02*
X78929455Y-156893328D01*
X78929455Y-156893328D02*
X79072313Y-156964757D01*
X80358027Y-157893328D02*
X80358027Y-157107614D01*
X80358027Y-157107614D02*
X80286598Y-156964757D01*
X80286598Y-156964757D02*
X80143741Y-156893328D01*
X80143741Y-156893328D02*
X79858027Y-156893328D01*
X79858027Y-156893328D02*
X79715169Y-156964757D01*
X80358027Y-157821900D02*
X80215169Y-157893328D01*
X80215169Y-157893328D02*
X79858027Y-157893328D01*
X79858027Y-157893328D02*
X79715169Y-157821900D01*
X79715169Y-157821900D02*
X79643741Y-157679042D01*
X79643741Y-157679042D02*
X79643741Y-157536185D01*
X79643741Y-157536185D02*
X79715169Y-157393328D01*
X79715169Y-157393328D02*
X79858027Y-157321900D01*
X79858027Y-157321900D02*
X80215169Y-157321900D01*
X80215169Y-157321900D02*
X80358027Y-157250471D01*
X81715170Y-157893328D02*
X81715170Y-156393328D01*
X81715170Y-157821900D02*
X81572312Y-157893328D01*
X81572312Y-157893328D02*
X81286598Y-157893328D01*
X81286598Y-157893328D02*
X81143741Y-157821900D01*
X81143741Y-157821900D02*
X81072312Y-157750471D01*
X81072312Y-157750471D02*
X81000884Y-157607614D01*
X81000884Y-157607614D02*
X81000884Y-157179042D01*
X81000884Y-157179042D02*
X81072312Y-157036185D01*
X81072312Y-157036185D02*
X81143741Y-156964757D01*
X81143741Y-156964757D02*
X81286598Y-156893328D01*
X81286598Y-156893328D02*
X81572312Y-156893328D01*
X81572312Y-156893328D02*
X81715170Y-156964757D01*
X82072313Y-158036185D02*
X83215170Y-158036185D01*
X83572312Y-156893328D02*
X83572312Y-158393328D01*
X83572312Y-156964757D02*
X83715170Y-156893328D01*
X83715170Y-156893328D02*
X84000884Y-156893328D01*
X84000884Y-156893328D02*
X84143741Y-156964757D01*
X84143741Y-156964757D02*
X84215170Y-157036185D01*
X84215170Y-157036185D02*
X84286598Y-157179042D01*
X84286598Y-157179042D02*
X84286598Y-157607614D01*
X84286598Y-157607614D02*
X84215170Y-157750471D01*
X84215170Y-157750471D02*
X84143741Y-157821900D01*
X84143741Y-157821900D02*
X84000884Y-157893328D01*
X84000884Y-157893328D02*
X83715170Y-157893328D01*
X83715170Y-157893328D02*
X83572312Y-157821900D01*
X85572313Y-157821900D02*
X85429455Y-157893328D01*
X85429455Y-157893328D02*
X85143741Y-157893328D01*
X85143741Y-157893328D02*
X85000884Y-157821900D01*
X85000884Y-157821900D02*
X84929455Y-157750471D01*
X84929455Y-157750471D02*
X84858027Y-157607614D01*
X84858027Y-157607614D02*
X84858027Y-157179042D01*
X84858027Y-157179042D02*
X84929455Y-157036185D01*
X84929455Y-157036185D02*
X85000884Y-156964757D01*
X85000884Y-156964757D02*
X85143741Y-156893328D01*
X85143741Y-156893328D02*
X85429455Y-156893328D01*
X85429455Y-156893328D02*
X85572313Y-156964757D01*
X86215169Y-157893328D02*
X86215169Y-156393328D01*
X86215169Y-156964757D02*
X86358027Y-156893328D01*
X86358027Y-156893328D02*
X86643741Y-156893328D01*
X86643741Y-156893328D02*
X86786598Y-156964757D01*
X86786598Y-156964757D02*
X86858027Y-157036185D01*
X86858027Y-157036185D02*
X86929455Y-157179042D01*
X86929455Y-157179042D02*
X86929455Y-157607614D01*
X86929455Y-157607614D02*
X86858027Y-157750471D01*
X86858027Y-157750471D02*
X86786598Y-157821900D01*
X86786598Y-157821900D02*
X86643741Y-157893328D01*
X86643741Y-157893328D02*
X86358027Y-157893328D01*
X86358027Y-157893328D02*
X86215169Y-157821900D01*
D10*
D11*
X60402200Y-153007200D02*
X168402200Y-153007200D01*
D10*
D11*
X61786598Y-155121900D02*
X62000884Y-155193328D01*
X62000884Y-155193328D02*
X62358026Y-155193328D01*
X62358026Y-155193328D02*
X62500884Y-155121900D01*
X62500884Y-155121900D02*
X62572312Y-155050471D01*
X62572312Y-155050471D02*
X62643741Y-154907614D01*
X62643741Y-154907614D02*
X62643741Y-154764757D01*
X62643741Y-154764757D02*
X62572312Y-154621900D01*
X62572312Y-154621900D02*
X62500884Y-154550471D01*
X62500884Y-154550471D02*
X62358026Y-154479042D01*
X62358026Y-154479042D02*
X62072312Y-154407614D01*
X62072312Y-154407614D02*
X61929455Y-154336185D01*
X61929455Y-154336185D02*
X61858026Y-154264757D01*
X61858026Y-154264757D02*
X61786598Y-154121900D01*
X61786598Y-154121900D02*
X61786598Y-153979042D01*
X61786598Y-153979042D02*
X61858026Y-153836185D01*
X61858026Y-153836185D02*
X61929455Y-153764757D01*
X61929455Y-153764757D02*
X62072312Y-153693328D01*
X62072312Y-153693328D02*
X62429455Y-153693328D01*
X62429455Y-153693328D02*
X62643741Y-153764757D01*
X63286597Y-155193328D02*
X63286597Y-153693328D01*
X63929455Y-155193328D02*
X63929455Y-154407614D01*
X63929455Y-154407614D02*
X63858026Y-154264757D01*
X63858026Y-154264757D02*
X63715169Y-154193328D01*
X63715169Y-154193328D02*
X63500883Y-154193328D01*
X63500883Y-154193328D02*
X63358026Y-154264757D01*
X63358026Y-154264757D02*
X63286597Y-154336185D01*
X65215169Y-155121900D02*
X65072312Y-155193328D01*
X65072312Y-155193328D02*
X64786598Y-155193328D01*
X64786598Y-155193328D02*
X64643740Y-155121900D01*
X64643740Y-155121900D02*
X64572312Y-154979042D01*
X64572312Y-154979042D02*
X64572312Y-154407614D01*
X64572312Y-154407614D02*
X64643740Y-154264757D01*
X64643740Y-154264757D02*
X64786598Y-154193328D01*
X64786598Y-154193328D02*
X65072312Y-154193328D01*
X65072312Y-154193328D02*
X65215169Y-154264757D01*
X65215169Y-154264757D02*
X65286598Y-154407614D01*
X65286598Y-154407614D02*
X65286598Y-154550471D01*
X65286598Y-154550471D02*
X64572312Y-154693328D01*
X66500883Y-155121900D02*
X66358026Y-155193328D01*
X66358026Y-155193328D02*
X66072312Y-155193328D01*
X66072312Y-155193328D02*
X65929454Y-155121900D01*
X65929454Y-155121900D02*
X65858026Y-154979042D01*
X65858026Y-154979042D02*
X65858026Y-154407614D01*
X65858026Y-154407614D02*
X65929454Y-154264757D01*
X65929454Y-154264757D02*
X66072312Y-154193328D01*
X66072312Y-154193328D02*
X66358026Y-154193328D01*
X66358026Y-154193328D02*
X66500883Y-154264757D01*
X66500883Y-154264757D02*
X66572312Y-154407614D01*
X66572312Y-154407614D02*
X66572312Y-154550471D01*
X66572312Y-154550471D02*
X65858026Y-154693328D01*
X67000883Y-154193328D02*
X67572311Y-154193328D01*
X67215168Y-153693328D02*
X67215168Y-154979042D01*
X67215168Y-154979042D02*
X67286597Y-155121900D01*
X67286597Y-155121900D02*
X67429454Y-155193328D01*
X67429454Y-155193328D02*
X67572311Y-155193328D01*
X68072311Y-155050471D02*
X68143740Y-155121900D01*
X68143740Y-155121900D02*
X68072311Y-155193328D01*
X68072311Y-155193328D02*
X68000883Y-155121900D01*
X68000883Y-155121900D02*
X68072311Y-155050471D01*
X68072311Y-155050471D02*
X68072311Y-155193328D01*
X68072311Y-154264757D02*
X68143740Y-154336185D01*
X68143740Y-154336185D02*
X68072311Y-154407614D01*
X68072311Y-154407614D02*
X68000883Y-154336185D01*
X68000883Y-154336185D02*
X68072311Y-154264757D01*
X68072311Y-154264757D02*
X68072311Y-154407614D01*
D10*
D12*
D10*
D11*
D10*
D11*
D10*
D11*
D10*
D11*
D10*
D11*
X80402200Y-163007200D02*
X80402200Y-166007200D01*
D10*
D11*
X144402200Y-163007200D02*
X144402200Y-169507200D01*
D14*
X-31850000Y-5475000D03*
D15*
X-31850000Y-15635000D03*
D16*
X-25100000Y-17500000D03*
D15*
X-25100000Y-20040000D03*
X-25100000Y-22580000D03*
X-17480000Y-22580000D03*
X-17480000Y-17500000D03*
D16*
X-25100000Y-4500000D03*
D15*
X-25100000Y-7040000D03*
X-25100000Y-9580000D03*
X-17480000Y-9580000D03*
X-17480000Y-4500000D03*
D16*
X-17500000Y-2352000D03*
D15*
X-7340000Y-2352000D03*
D17*
X-24710000Y-2070000D03*
X-27250000Y-2070000D03*
X-29790000Y-2070000D03*
X-32330000Y-2070000D03*
X-34870000Y-2070000D03*
X-37410000Y-2070000D03*
X-39950000Y-2070000D03*
X-42490000Y-2070000D03*
X-42490000Y-24930000D03*
X-39950000Y-24930000D03*
X-37410000Y-24930000D03*
X-34870000Y-24930000D03*
X-32330000Y-24930000D03*
X-29790000Y-24930000D03*
X-27250000Y-24930000D03*
X-24710000Y-24930000D03*
D14*
X-40100000Y-16500000D03*
X-40100000Y-17750000D03*
X-40100000Y-20250000D03*
X-40100000Y-21500000D03*
D18*
X-11350000Y-16075000D03*
X-11340000Y-10995000D03*
D16*
X-7300000Y-24650000D03*
D15*
X-17460000Y-24650000D03*
D16*
X-40100000Y-10500000D03*
D14*
X-40100000Y-8500000D03*
X-28825000Y-12375000D03*
D15*
X-28825000Y-22535000D03*
D19*
X-5600000Y-8450000D03*
D20*
X-5600000Y-13530000D03*
X-5600000Y-18610000D03*
D21*
X-13975000Y-5900000D03*
D22*
X-13975000Y-21100000D03*
X-41975000Y-5900000D03*
X-41975000Y-13500000D03*
M02*
